<?xml version="1.0" encoding="UTF-8" standalone="no"?>
<svg
   xmlns:dc="http://purl.org/dc/elements/1.1/"
   xmlns:cc="http://creativecommons.org/ns#"
   xmlns:rdf="http://www.w3.org/1999/02/22-rdf-syntax-ns#"
   xmlns:svg="http://www.w3.org/2000/svg"
   xmlns="http://www.w3.org/2000/svg"
   xmlns:sodipodi="http://sodipodi.sourceforge.net/DTD/sodipodi-0.dtd"
   xmlns:inkscape="http://www.inkscape.org/namespaces/inkscape"
   version="1.1"
   id="Layer_1"
   x="0px"
   y="0px"
   viewBox="530.9636 36.6366 858.1054 1846.715"
   enable-background="new 530.9636 36.6366 858.1054 1846.715"
   xml:space="preserve"
   inkscape:version="0.91 r13725"
   sodipodi:docname="Telephone Box.svg"><metadata
     id="metadata200"><rdf:RDF><cc:Work
         rdf:about=""><dc:format>image/svg+xml</dc:format><dc:type
           rdf:resource="http://purl.org/dc/dcmitype/StillImage" /></cc:Work></rdf:RDF></metadata><defs
     id="defs198" /><sodipodi:namedview
     pagecolor="#ffffff"
     bordercolor="#666666"
     borderopacity="1"
     objecttolerance="10"
     gridtolerance="10"
     guidetolerance="10"
     inkscape:pageopacity="0"
     inkscape:pageshadow="2"
     inkscape:window-width="640"
     inkscape:window-height="480"
     id="namedview196"
     showgrid="false"
     inkscape:zoom="0.5448344"
     inkscape:cx="109.29068"
     inkscape:cy="974.04331"
     inkscape:current-layer="layer1" /><path
     fill="#BA2F2A"
     stroke="#BA2F2A"
     stroke-width="0.0938"
     d="M886.9,80.25c74.53-7.05,150.0599-1.5,223.1,14.62  c61.01,13.36,120.3199,34.03,177.02,60.14c-3.8,9.79-9.21,19-12.37,28.98c-0.14,41.25-0.05,82.5-0.04,123.75  c-0.3099,0-0.92-0.01-1.23-0.01c0.02-37.9,0.02-75.8,0.02-113.7c-0.0601-4.64,0.46-9.33-0.36-13.92c-2.87-2.18-6.4-3.18-9.6901-4.48  c-37.03-14.74-75.01-26.96-113.4399-37.45c-60.73-15.75-123.11-25.83-185.9-27.25c-27.36-0.47-54.78-0.12-82.02,2.68  c-60.23,5.32-119.65,19.03-176.34,39.99c-21.06,7.76-41.91,16.17-61.97,26.26c0.78,9.68,0.31,19.39,0.42,29.08  c0.03,30.69-0.04,61.39,0.05,92.08c-0.07,2.22-0.31,4.45-0.73,6.64c-0.88-9.54-0.4-19.11-0.5-28.67c0-29.99-0.06-59.99,0.04-89.98  c-0.06-2.14-0.18-4.27-0.51-6.38c-2.94-8.36-6.59-16.47-9.44-24.86C711.29,115.21,798.15,88.44,886.9,80.25z"
     id="path3" /><path
     fill="#DE3933"
     stroke="#DE3933"
     stroke-width="0.0938"
     d="M881.99,113.61c27.24-2.8,54.66-3.15,82.02-2.68  c62.79,1.42,125.17,11.5,185.9,27.25c38.4299,10.49,76.4099,22.71,113.4399,37.45c3.29,1.3,6.8201,2.3,9.6901,4.48  c0.8199,4.59,0.2999,9.28,0.36,13.92c0,37.9,0,75.8-0.02,113.7c0.3099,0,0.92,0.01,1.23,0.01c2.26,0.02,4.53,0.03,6.8201,0.04  c0.6399,9.74,0.24,19.5,0.36,29.25c-0.03,478.32,0,956.64-0.02,1434.96c-0.0801,8.12,0.34,16.27-0.46,24.38  c-16.89,0.04-33.78-0.0599-50.67,0.05c-0.33-0.2001-0.98-0.61-1.3101-0.8201c-0.11-13.51,0.14-27.03-0.1699-40.5399  c-0.65-15.6801-0.27-31.38-0.42-47.0601c-0.87-37.65-0.1-75.3101-0.95-112.96c0.01-22-0.6001-44-0.52-66  c-0.02-30.04-1.14-60.0701-0.9501-90.11c-0.2999-38.64-0.37-77.27-0.9199-115.91c0.26-25.67-0.9501-51.3201-0.59-76.99  c-0.79-30.35-0.54-60.72-0.7201-91.0701c-0.4-25.6499-0.0599-51.2999-0.7799-76.9299c-0.1001-24.36,0.0499-48.72-0.8201-73.07  c-0.6-48.9901,0.3-98-1.09-146.98c-0.09-26.98-0.0701-53.97-1.09-80.94c0.0199-28.67,0-57.33-0.2001-86  c-0.72-21.33,0.05-42.68-0.72-64.0099c-0.29-26.03,0.1899-52.0601-0.63-78.08c-0.61-31.65-0.34-63.31-0.61-94.96  c-0.59-26.35-0.26-52.7-0.53-79.05c-0.16-8.28,0.4301-16.64-0.92-24.84c0.03-2.46-3.0399-2.06-4.71-2.4  c-39.66-0.23-79.33,0.31-118.98,0.57c-30.3201,0.8-60.66,0.22-90.98,0.63c-22.32,1.22-44.6801,0.49-67.01,0.79  c-24.69,0-49.37,0.38-74.05,0.49c-24.3199,0.22-48.67-0.18-72.95,1.3c-33.36,0.27-66.73-0.01-100.09,0.47  c-0.5,13.03,0.37,26.06,0.03,39.09c0.34,27.67,0.31,55.35,0.41,83.02c0.15,15.98-0.29,31.97,0.71,47.93  c0.03,15.33,0.76,30.65,0.65,45.99c-0.06,19.66,0.14,39.33,0.47,58.99c-0.18,45.67,0.67,91.33,1.05,136.9901  c0.23,20.0099-0.25,40.02,0.52,60.02c-0.21,33.69,0.56,67.37,0.55,101.06c0.11,10.97-0.16,21.95,0.19,32.92  c1.22,14.97,0.46,29.99,0.72,45c0.53,51.34,1.08,102.67,1.08,154.02c0.44,27.02,1.05,54.04,0.91,81.0601  c0.88,27.64,0.39,55.2999,0.69,82.95c0.39,21.35,0.29,42.71,0.36,64.0601c0.62,15.3099,0.43,30.63,0.46,45.95  c0.91,48.33,1.18,96.67,1.09,145.01c0.7,27.66,0.68,55.34,0.9,83.01c-0.25,13.98,0.86,27.9399,0.55,41.9199  c0.28,31.8401,0.53,63.67,0.75,95.5c-21.44-0.1599-42.87-0.0299-64.31-0.0499c-0.33,0.01-0.9901,0.01-1.32,0.01  c-0.15-208.8-0.02-417.6-0.07-626.4c0.06-287.42-0.1-574.83,0.08-862.24c2.41,0.04,4.83,0.08,7.25,0.01  c0.45-0.03,1.33-0.08,1.77-0.11c0.42-2.19,0.66-4.42,0.73-6.64c-0.09-30.69-0.02-61.39-0.05-92.08c-0.11-9.69,0.36-19.4-0.42-29.08  c20.06-10.09,40.91-18.5,61.97-26.26C762.34,132.64,821.76,118.93,881.99,113.61 M710.75,240.72c-0.3,1.41-0.39,2.87-0.43,4.32  c0.02,24.68,0.14,49.36-0.03,74.05c0.01,1.74,0.07,3.49,0.41,5.21c5.05,0.79,10.2,0.27,15.29,0.35  c156.62-0.04,313.24,0.05,469.85-0.04c0.05-0.61,0.15-1.84,0.2001-2.46c-0.6001-16.69-0.17-33.43-0.29-50.14  c-0.29-10.26,0.65-20.53-0.16-30.78c-9.2-0.74-18.4,0.31-27.61-0.04c-143.64,0-287.29-0.01-430.93-0.01  C728.28,241.28,719.5,239.73,710.75,240.72z"
     id="path5" /><path
     fill="#F6A19E"
     stroke="#F6A19E"
     stroke-width="0.0938"
     d="M642.45,182.63c0.33,2.11,0.45,4.24,0.51,6.38  c-0.1,29.99-0.04,59.99-0.04,89.98c0.1,9.56-0.38,19.13,0.5,28.67c-0.44,0.03-1.32,0.08-1.77,0.11c0.75-7.9,0.41-15.85,0.45-23.78  c0.05-26.99-0.02-53.98,0.03-80.98C642.17,196.22,641.81,189.41,642.45,182.63z"
     id="path7" /><path
     fill="#B23835"
     stroke="#B23835"
     stroke-width="0.0938"
     d="M710.75,240.72c8.75-0.99,17.53,0.56,26.3,0.46  c143.64,0,287.29,0.01,430.93,0.01c9.21,0.35,18.41-0.7,27.61,0.04c0.8101,10.25-0.13,20.52,0.16,30.78  c0.12,16.71-0.3101,33.45,0.29,50.14c-0.05,0.62-0.15,1.85-0.2001,2.46c-156.61,0.09-313.23,0-469.85,0.04  c-5.09-0.08-10.24,0.44-15.29-0.35c-0.34-1.72-0.4-3.47-0.41-5.21c0.17-24.69,0.05-49.37,0.03-74.05  C710.36,243.59,710.45,242.13,710.75,240.72 M721.63,252.41c0.09,20.32,0.04,40.63,0.03,60.95  c154.26-0.02,308.5201-0.01,462.7701-0.01c0.0499-20.32,0.0299-40.64,0.0099-60.95C1030.17,252.35,875.9,252.31,721.63,252.41z"
     id="path9" /><path
     fill="#FFFFFF"
     stroke="#FFFFFF"
     stroke-width="0.0938"
     d="M721.63,252.41c154.27-0.1,308.54-0.06,462.8099-0.01  c0.02,20.31,0.04,40.63-0.0099,60.95c-154.25,0-308.5101-0.01-462.7701,0.01C721.67,293.04,721.72,272.73,721.63,252.41   M1037.49,258.82c-3.51,0.95-6.76,2.77-9.48,5.18c-12.08,10.34-11.35,31.94,1.48,41.38c8.76,6.75,22.37,6.11,30.35-1.6  c11.24-9.94,11.41-29.79,0.0701-39.72C1054.0699,258.42,1045.22,256.62,1037.49,258.82 M741.51,259.12  c-0.08,4.17-0.56,8.35-0.25,12.52c2.49-1.7,1.66-5.5,4.12-7.33c3.52-2.93,8.55-1.48,12.75-1.83c-0.12,13.51,0.18,27.04-0.14,40.54  c0.19,3.85-4.12,4.38-7.01,4.32c0.01,0.37,0.05,1.12,0.06,1.5c6.33-0.01,12.66,0.04,18.9901,0.01c1.24,0.19,2.35-0.51,3.45-0.98  c-2.04-0.62-4.2-0.7-6.18-1.45c-1.94-1.08-1.61-3.62-1.8-5.5c-0.05-12.81,0.01-25.63-0.03-38.44c4.46,0.32,10.04-1.21,13.51,2.44  c1.99,1.84,1.16,5.37,3.71,6.69c0.2-4.17-0.21-8.32-0.3-12.48C768.76,259.08,755.14,259.11,741.51,259.12 M785.32,259.28  c1.4,2.56,5,0.84,6.85,2.87c1.18,2.79,0.68,5.92,0.8,8.86c-0.15,10.96,0.26,21.95-0.21,32.9c-0.4,3.28-4.42,3.18-6.89,3.45  c0.01,0.37,0.04,1.11,0.05,1.48c12.8,0,25.6,0.01,38.4,0c1.45-4.43,3.21-8.76,4.34-13.28c-3.0699,1.3-3.75,4.97-6.06,7.12  c-3.85,4.51-10.38,2.89-15.58,3.23c-2.15-0.32-6.13,0.93-6.54-2.17c-0.35-6.46-0.03-12.94-0.16-19.41  c4.89,0.23,9.91-0.55,14.73,0.51c3.66,0.89,2.31,5.7,5.04,7.6c0.27-5.51,0.2-11.02,0.14-16.53c0.07-1.01-0.35-1.77-1.27-2.3  c-0.8,2.55-0.76,6.46-3.96,7.26c-4.82,0.91-9.78,0.24-14.65,0.43c-0.04-6.41,0.02-12.81-0.04-19.21c5.9,0.13,11.86-0.37,17.74,0.3  c3.84,0.73,4.35,5.08,5.4,8.16c0.36-0.09,1.07-0.28,1.43-0.37c-0.24-3.65-0.2-7.31-0.59-10.95  C811.31,259.05,798.3,258.98,785.32,259.28 M830.34,260.02c2.15,0.75,4.6,0.62,6.66,1.68c1.64,1.23,1.4,3.56,1.59,5.4  c0.05,11.27,0.05,22.55,0,33.83c-0.15,1.93,0,4.48-2,5.52c-2.06,0.68-4.25,0.88-6.3,1.55c1.5,0.62,3.06,0.91,4.69,0.86  c11.71-0.04,23.42,0,35.14-0.02c1.36-4.85,3.29-9.54,4.25-14.5c-2.98,1.88-3.34,5.85-5.96,8.09c-3.22,3.35-8.23,2.9-12.46,3.04  c-3.03-0.14-6.25,0.38-9.1-0.81c-1.49-3.35-0.74-7.18-0.93-10.74c0.21-9.94-0.43-19.92,0.37-29.83c1.11-3.9,6.06-2.84,9.05-4.02  c-0.58-0.22-1.7401-0.66-2.32-0.89c-5.97-0.19-11.96,0-17.93-0.1C833.42,258.99,831.84,259.3,830.34,260.02 M877.13,259.14  c-0.03,0.36-0.09,1.09-0.12,1.45c2.16,0.3,4.82-0.07,6.48,1.68c1.11,3.12,0.59,6.5,0.72,9.75c-0.12,10.64,0.24,21.31-0.19,31.94  c-0.52,3.35-4.53,3.06-7.05,3.47c0.04,0.34,0.13,1.04,0.17,1.39c12.81,0.05,25.61,0.02,38.42,0.02c1.41-4.46,3.3-8.77,4.28-13.35  c-4.01,2.37-4.81,8.23-9.6,9.72c-5.35,1.17-10.93,0.66-16.36,0.54c-1.63,0.2-2.26-1.52-2.24-2.84c-0.22-6.18,0.01-12.38-0.08-18.57  c4.85,0.17,9.8-0.49,14.59,0.46c3.72,0.87,2.53,5.61,5.05,7.73c0.44-6.41,0.52-12.9-0.04-19.3c-2.17,2.2-1.43,6.79-4.95,7.65  c-4.82,0.91-9.77,0.21-14.64,0.43c0-6.42-0.01-12.83,0.01-19.24c6.13,0.28,12.38-0.58,18.44,0.54c4.09,1.03,2.6,6.66,6.08,8.22  c-0.18-3.91-0.33-7.82-0.5-11.73C902.78,259.15,889.95,259.06,877.13,259.14 M921.34,260.03c2.43,1.12,6.29,0.15,7.69,2.96  c0.9399,3.59,0.4399,7.35,0.56,11.02c-0.1201,9.69,0.23,19.39-0.16,29.06c0.1,4.34-4.95,3.93-7.86,4.76  c1.03,0.61,2.15,1.17,3.43,1.02c6.34,0.02,12.69-0.01,19.04-0.03c0-0.37,0-1.1,0-1.47c-2.33-0.32-5.93,0.09-6.65-2.84  c-0.89-6.18-0.24-12.47-0.43-18.7c5.95,1.16,12.78,1.88,18.06-1.76c6.85-4.55,7.4-15.84,0.89-20.94c-6.06-5.19-14.6-3.77-21.93-4.01  C929.77,259.41,925.31,258.29,921.34,260.03 M964.11,259.16c-0.02,0.35-0.07,1.06-0.1,1.41c2.86,0.12,7.39,0.48,7.13,4.44  c0.07,12.68,0.22,25.39-0.08,38.06c0.18,3.91-4.22,4.26-7.08,4.32c0.03,0.35,0.11,1.06,0.14,1.41c7.48-0.13,15.01,0.5,22.45-0.37  c-2.24-2.2-7.03-0.54-7.74-4.34c-0.58-6.31-0.11-12.66-0.26-18.98c7.55-0.02,15.11,0.01,22.67-0.01  c-0.19,6.35,0.44,12.75-0.38,19.06c-0.55,3.16-4.39,2.98-6.84,3.23c0.03,0.36,0.1,1.07,0.14,1.42c6.29,0.03,12.59,0.05,18.89,0.04  c1.27,0.13,2.48-0.25,3.49-1.06c-2.06-0.57-4.25-0.66-6.19-1.51c-1.87-1.02-1.65-3.41-1.74-5.21c-0.03-11.35-0.01-22.69-0.01-34.04  c0.12-1.85-0.22-4.54,1.85-5.46c2.06-0.74,4.27-0.92,6.38-1.57c-0.68-0.21-2.03-0.64-2.7-0.86c-6.65-0.08-13.3-0.02-19.95,0.01  c-0.04,0.35-0.13,1.06-0.17,1.42c2.49,0.28,6.44,0.16,6.97,3.38c0.6,6.02,0.11,12.09,0.26,18.14c-7.56,0.02-15.11,0-22.66,0.01  c0.13-6.08-0.33-12.19,0.26-18.25c0.68-3.84,5.52-2.08,7.7-4.33C979.1,258.66,971.58,259.28,964.11,259.16 M1069.8199,259.16  c0,0.34,0.02,1.04,0.03,1.38c3.89,0.12,7.37,2,9.74,5.06c0.0901,11.47,0.01,22.95,0.05,34.42c-0.17,2.07,0.17,4.61-1.51,6.15  c-2.11,1.08-4.61,1.03-6.8101,1.83c6.15,1.73,12.76,0.54,19.1001,0.74c0.1599-2.35-2.9801-1.22-4.36-1.94  c-2.7201-0.36-2.8701-3.58-2.8601-5.71c-0.01-10.29-0.0299-20.58,0.01-30.87c5.53,6.68,10.99,13.42,16.4701,20.14  c5.73,6.63,10.73,13.93,16.95,20.1c0.3099-2.16,0.5-4.35,0.48-6.53c-0.03-12.32,0-24.64-0.02-36.95  c0.0801-1.82-0.08-4.08,1.5901-5.29c1.8899-1.2,4.74-0.24,6.11-2.35c-4.25-0.41-8.52-0.16-12.77-0.24  c-2.28,0.05-4.72-0.32-6.77,0.95c2.62,1.12,7.48,0.08,7.9399,3.96c0.7201,10.59,0.0801,21.26,0.3101,31.88  c-9.95-12.27-19.98-24.47-29.89-36.76C1079.01,259.08,1074.41,259.09,1069.8199,259.16 M1125.13,260.01  c2.29,0.79,4.89,0.67,7.09,1.78c1.63,2.37,1.04,5.44,1.2101,8.15c-0.2001,11.38,0.34,22.8-0.29,34.16  c-0.67,3.86-5.55,2.06-7.72,4.35c13.0599,0.88,26.21,0.17,39.3099,0.38c1.4401-4.44,3.27-8.77,4.3-13.34  c-3.92,2.21-4.65,7.74-9.0601,9.5c-4.48,1.5-9.3199,0.71-13.9399,0.92c-1.74-0.18-4.7001,0.47-5.1-1.93  c-0.37-6.53-0.04-13.09-0.15-19.64c4.73,0.1,9.51-0.36,14.22,0.32c3.9399,0.76,2.9399,5.6,5.3199,7.9  c0.5901-6.34,0.4601-12.77,0.1001-19.13c-2.4701,1.83-1.37,6.19-4.62,7.33c-4.91,1.13-10.03,0.28-15.02,0.56  c-0.01-6.42,0.01-12.83-0.01-19.24c4.75,0.03,9.5-0.04,14.26,0c2.0599,0.08,4.48,0.1,6.03,1.72c2.0299,2.04,1.48,5.59,4.1,7.22  c0.12-3.98-0.24-7.95-0.4401-11.92c-10.5499,0.01-21.1,0.03-31.65,0C1130.4,259.15,1127.6,258.75,1125.13,260.01z"
     id="path11" /><path
     stroke="#000000"
     stroke-width="0.0938"
     d="M1037.49,258.82c7.73-2.2,16.58-0.4,22.42,5.24  c11.34,9.93,11.1699,29.78-0.0701,39.72c-7.98,7.71-21.59,8.35-30.35,1.6c-12.83-9.44-13.56-31.04-1.48-41.38  C1030.73,261.59,1033.98,259.77,1037.49,258.82 M1038.58,261.75c-6.49,2.44-9.38,9.7-10.12,16.11  c-0.7899,8.37-0.4399,17.82,5.13,24.64c4.73,5.95,14.4601,5.98,19.86,0.92c4.64-4.07,5.89-10.56,6.12-16.45  c0.17-7.08-0.2799-14.78-4.5699-20.73C1051.42,261.16,1044.23,259.63,1038.58,261.75z"
     id="path13" /><path
     fill="#010101"
     stroke="#010101"
     stroke-width="0.0938"
     d="M741.51,259.12c13.63-0.01,27.25-0.04,40.88,0.01  c0.09,4.16,0.5,8.31,0.3,12.48c-2.55-1.32-1.72-4.85-3.71-6.69c-3.47-3.65-9.05-2.12-13.51-2.44c0.04,12.81-0.02,25.63,0.03,38.44  c0.19,1.88-0.14,4.42,1.8,5.5c1.98,0.75,4.14,0.83,6.18,1.45c-1.1,0.47-2.21,1.17-3.45,0.98c-6.33,0.03-12.66-0.02-18.9901-0.01  c-0.0099-0.38-0.05-1.13-0.06-1.5c2.89,0.06,7.2-0.47,7.01-4.32c0.32-13.5,0.02-27.03,0.14-40.54c-4.2,0.35-9.23-1.1-12.75,1.83  c-2.46,1.83-1.63,5.63-4.12,7.33C740.95,267.47,741.43,263.29,741.51,259.12z"
     id="path15" /><path
     stroke="#000000"
     stroke-width="0.0938"
     d="M785.32,259.28c12.98-0.3,25.99-0.23,38.97-0.05c0.39,3.64,0.35,7.3,0.59,10.95  c-0.36,0.09-1.07,0.28-1.43,0.37c-1.05-3.08-1.56-7.43-5.4-8.16c-5.88-0.67-11.84-0.17-17.74-0.3c0.06,6.4,0,12.8,0.04,19.21  c4.87-0.19,9.83,0.48,14.65-0.43c3.2-0.8,3.16-4.71,3.96-7.26c0.92,0.53,1.34,1.29,1.27,2.3c0.06,5.51,0.13,11.02-0.14,16.53  c-2.73-1.9-1.38-6.71-5.04-7.6c-4.82-1.06-9.84-0.28-14.73-0.51c0.13,6.47-0.19,12.95,0.16,19.41c0.41,3.1,4.39,1.85,6.54,2.17  c5.2-0.34,11.73,1.28,15.58-3.23c2.31-2.15,2.9901-5.82,6.06-7.12c-1.1299,4.52-2.89,8.85-4.34,13.28c-12.8,0.01-25.6,0-38.4,0  c-0.01-0.37-0.04-1.11-0.05-1.48c2.47-0.27,6.49-0.17,6.89-3.45c0.47-10.95,0.06-21.94,0.21-32.9c-0.12-2.94,0.38-6.07-0.8-8.86  C790.32,260.12,786.72,261.84,785.32,259.28z"
     id="path17" /><path
     stroke="#000000"
     stroke-width="0.0938"
     d="M830.34,260.02c1.5-0.72,3.08-1.03,4.75-0.94c5.97,0.1,11.96-0.09,17.93,0.1  c0.58,0.23,1.74,0.67,2.32,0.89c-2.9901,1.18-7.94,0.12-9.05,4.02c-0.8,9.91-0.16,19.89-0.37,29.83c0.19,3.56-0.56,7.39,0.93,10.74  c2.85,1.19,6.07,0.67,9.1,0.81c4.23-0.14,9.24,0.31,12.46-3.04c2.6201-2.24,2.98-6.21,5.96-8.09c-0.96,4.96-2.89,9.65-4.25,14.5  c-11.72,0.02-23.43-0.02-35.14,0.02c-1.63,0.05-3.19-0.24-4.69-0.86c2.05-0.67,4.2401-0.87,6.3-1.55c2-1.04,1.85-3.59,2-5.52  c0.05-11.28,0.05-22.56,0-33.83c-0.19-1.84,0.05-4.17-1.59-5.4C834.94,260.64,832.49,260.77,830.34,260.02z"
     id="path19" /><path
     stroke="#000000"
     stroke-width="0.0938"
     d="M877.13,259.14c12.82-0.08,25.65,0.01,38.47-0.04c0.17,3.91,0.32,7.82,0.5,11.73  c-3.48-1.56-1.99-7.19-6.08-8.22c-6.06-1.12-12.31-0.26-18.44-0.54c-0.02,6.41-0.01,12.82-0.01,19.24  c4.87-0.22,9.82,0.48,14.64-0.43c3.52-0.86,2.78-5.45,4.95-7.65c0.56,6.4,0.48,12.89,0.04,19.3c-2.52-2.12-1.33-6.86-5.05-7.73  c-4.79-0.95-9.7401-0.29-14.59-0.46c0.09,6.19-0.14,12.39,0.08,18.57c-0.02,1.32,0.61,3.04,2.24,2.84  c5.43,0.12,11.01,0.63,16.36-0.54c4.79-1.49,5.59-7.35,9.6-9.72c-0.98,4.58-2.8701,8.89-4.28,13.35c-12.81,0-25.61,0.03-38.42-0.02  c-0.04-0.35-0.13-1.05-0.17-1.39c2.52-0.41,6.53-0.12,7.05-3.47c0.43-10.63,0.07-21.3,0.19-31.94c-0.13-3.25,0.39-6.63-0.72-9.75  c-1.66-1.75-4.32-1.38-6.48-1.68C877.04,260.23,877.1,259.5,877.13,259.14z"
     id="path21" /><path
     stroke="#000000"
     stroke-width="0.0938"
     d="M921.34,260.03c3.97-1.74,8.43-0.62,12.64-0.93c7.33,0.24,15.87-1.18,21.93,4.01  c6.51,5.1,5.96,16.39-0.89,20.94c-5.28,3.64-12.11,2.92-18.06,1.76c0.19,6.23-0.46,12.52,0.43,18.7c0.72,2.93,4.32,2.52,6.65,2.84  c0,0.37,0,1.1,0,1.47c-6.35,0.02-12.7,0.05-19.04,0.03c-1.28,0.15-2.4-0.41-3.43-1.02c2.91-0.83,7.96-0.42,7.86-4.76  c0.39-9.67,0.04-19.37,0.16-29.06c-0.1201-3.67,0.3799-7.43-0.56-11.02C927.63,260.18,923.77,261.15,921.34,260.03 M936.96,262.82  c-0.01,6.86,0.0099,13.72-0.02,20.58c3.27,0.45,6.89,1.45,9.92-0.41c6.3-3.65,6.41-13.4,1.53-18.26  C945.32,261.85,940.79,262.13,936.96,262.82z"
     id="path23" /><path
     stroke="#000000"
     stroke-width="0.0938"
     d="M964.11,259.16c7.47,0.12,14.99-0.5,22.43,0.36c-2.18,2.25-7.02,0.49-7.7,4.33  c-0.59,6.06-0.13,12.17-0.26,18.25c7.55-0.01,15.1,0.01,22.66-0.01c-0.15-6.05,0.34-12.12-0.26-18.14c-0.53-3.22-4.48-3.1-6.97-3.38  c0.04-0.36,0.13-1.07,0.17-1.42c6.65-0.03,13.3-0.09,19.95-0.01c0.67,0.22,2.02,0.65,2.7,0.86c-2.11,0.65-4.32,0.83-6.38,1.57  c-2.07,0.92-1.73,3.61-1.85,5.46c0,11.35-0.02,22.69,0.01,34.04c0.09,1.8-0.13,4.19,1.74,5.21c1.94,0.85,4.13,0.94,6.19,1.51  c-1.0099,0.81-2.22,1.19-3.49,1.06c-6.3,0.01-12.6-0.01-18.89-0.04c-0.04-0.35-0.11-1.06-0.14-1.42c2.45-0.25,6.29-0.07,6.84-3.23  c0.82-6.31,0.19-12.71,0.38-19.06c-7.56,0.02-15.12-0.01-22.67,0.01c0.15,6.32-0.32,12.67,0.26,18.98c0.71,3.8,5.5,2.14,7.74,4.34  c-7.44,0.87-14.97,0.24-22.45,0.37c-0.03-0.35-0.11-1.06-0.14-1.41c2.86-0.06,7.26-0.41,7.08-4.32c0.3-12.67,0.15-25.38,0.08-38.06  c0.26-3.96-4.27-4.32-7.13-4.44C964.04,260.22,964.09,259.51,964.11,259.16z"
     id="path25" /><path
     stroke="#000000"
     stroke-width="0.0938"
     d="M1069.8199,259.16c4.5901-0.07,9.1901-0.08,13.79-0.03  c9.91,12.29,19.9401,24.49,29.89,36.76c-0.23-10.62,0.41-21.29-0.3101-31.88c-0.46-3.88-5.3199-2.84-7.9399-3.96  c2.05-1.27,4.49-0.9,6.77-0.95c4.25,0.08,8.52-0.17,12.77,0.24c-1.37,2.11-4.2201,1.15-6.11,2.35c-1.67,1.21-1.51,3.47-1.5901,5.29  c0.02,12.31-0.01,24.63,0.02,36.95c0.02,2.18-0.17,4.37-0.48,6.53c-6.22-6.17-11.22-13.47-16.95-20.1  c-5.4801-6.72-10.9401-13.46-16.4701-20.14c-0.0399,10.29-0.02,20.58-0.01,30.87c-0.01,2.13,0.14,5.35,2.8601,5.71  c1.3799,0.72,4.5199-0.41,4.36,1.94c-6.3401-0.2-12.9501,0.99-19.1001-0.74c2.2001-0.8,4.7001-0.75,6.8101-1.83  c1.6801-1.54,1.34-4.08,1.51-6.15c-0.04-11.47,0.04-22.95-0.05-34.42c-2.37-3.06-5.85-4.94-9.74-5.06  C1069.84,260.2,1069.8199,259.5,1069.8199,259.16z"
     id="path27" /><path
     stroke="#000000"
     stroke-width="0.0938"
     d="M1125.13,260.01c2.47-1.26,5.27-0.86,7.9399-0.91c10.55,0.03,21.1001,0.01,31.65,0  c0.2001,3.97,0.5601,7.94,0.4401,11.92c-2.62-1.63-2.0701-5.18-4.1-7.22c-1.55-1.62-3.9701-1.64-6.03-1.72  c-4.76-0.04-9.51,0.03-14.26,0c0.02,6.41,0,12.82,0.01,19.24c4.99-0.28,10.11,0.57,15.02-0.56c3.25-1.14,2.1499-5.5,4.62-7.33  c0.36,6.36,0.49,12.79-0.1001,19.13c-2.38-2.3-1.38-7.14-5.3199-7.9c-4.71-0.68-9.49-0.22-14.22-0.32  c0.11,6.55-0.22,13.11,0.15,19.64c0.3999,2.4,3.36,1.75,5.1,1.93c4.62-0.21,9.46,0.58,13.9399-0.92c4.41-1.76,5.14-7.29,9.0601-9.5  c-1.03,4.57-2.86,8.9-4.3,13.34c-13.1-0.21-26.25,0.5-39.3099-0.38c2.1699-2.29,7.0499-0.49,7.72-4.35  c0.63-11.36,0.09-22.78,0.29-34.16c-0.17-2.71,0.4199-5.78-1.2101-8.15C1130.02,260.68,1127.42,260.8,1125.13,260.01z"
     id="path29" /><path
     fill="#FFFFFF"
     stroke="#FFFFFF"
     stroke-width="0.0938"
     d="M1038.58,261.75c5.65-2.12,12.8401-0.59,16.42,4.49  c4.29,5.95,4.74,13.65,4.5699,20.73c-0.23,5.89-1.48,12.38-6.12,16.45c-5.3999,5.06-15.13,5.03-19.86-0.92  c-5.5699-6.82-5.9199-16.27-5.13-24.64C1029.2,271.45,1032.09,264.19,1038.58,261.75z"
     id="path31" /><path
     fill="#FFFFFF"
     stroke="#FFFFFF"
     stroke-width="0.0938"
     d="M936.96,262.82c3.83-0.69,8.36-0.97,11.43,1.91  c4.88,4.86,4.77,14.61-1.53,18.26c-3.03,1.86-6.65,0.86-9.92,0.41C936.97,276.54,936.95,269.68,936.96,262.82z"
     id="path33" /><path
     fill="#B75F5A"
     stroke="#B75F5A"
     stroke-width="0.0938"
     d="M1281.4301,307.78c0.4199,0.01,1.2799,0.04,1.7,0.06  c0,495.06,0.02,990.13,0,1485.1901c-0.0601,1.71-0.6901,3.34-1.24,4.96c-0.01,11.67-0.22,23.34,0.09,35.02  c-0.0699,1.52,0.13,3.13-0.26,4.6799c-9.14,0.25-18.38,0.5801-27.49-0.0199c3.49-0.9801,7.15-0.15,10.73-0.29  c5.37-0.21,10.74-0.53,16.13-0.42c-0.01-13.5299-0.27-27.0699,0.2201-40.59c0.7999-8.11,0.3799-16.26,0.46-24.38  c0.02-478.3199-0.01-956.64,0.02-1434.96C1281.67,327.28,1282.0699,317.52,1281.4301,307.78z"
     id="path35" /><path
     fill="#F0280E"
     stroke="#F0280E"
     stroke-width="0.0938"
     d="M1002.03,348.9c30.3199-0.41,60.6599,0.17,90.98-0.63  c39.65-0.26,79.3199-0.8,118.98-0.57c1.67,0.34,4.74-0.06,4.71,2.4c1.3501,8.2,0.76,16.56,0.92,24.84  c0.27,26.35-0.0599,52.7,0.53,79.05c0.27,31.65,0,63.31,0.61,94.96c0.8199,26.02,0.34,52.05,0.63,78.08  c0.77,21.33,0,42.68,0.72,64.0099c0.2001,28.67,0.22,57.33,0.2001,86c1.0199,26.97,1,53.96,1.09,80.94  c1.39,48.98,0.49,97.99,1.09,146.98c0.87,24.35,0.72,48.71,0.8201,73.07c0.72,25.63,0.3799,51.28,0.7799,76.9299  c0.1801,30.3501-0.0699,60.7201,0.7201,91.0701c-0.3601,25.6699,0.85,51.3199,0.59,76.99c0.5499,38.64,0.62,77.27,0.9199,115.91  c-0.1899,30.0399,0.9301,60.0699,0.9501,90.11c-0.0801,22,0.53,44,0.52,66c0.85,37.6499,0.08,75.3099,0.95,112.96  c0.15,15.6801-0.23,31.38,0.42,47.0601c0.3099,13.5099,0.0599,27.0299,0.1699,40.5399c0.3301,0.2101,0.9801,0.62,1.3101,0.8201  c-0.25,0.0599-0.75,0.1799-0.99,0.24c-0.16,1.88-0.22,3.8099-0.3,5.75c-15.12,0.0399-30.24,0.14-45.36,0.21  c-12.34,0.1901-24.6899-0.29-37,0.6801c-24.99,0.12-49.99,0.24-74.98,0.37c-12.34,0.1599-24.6901-0.1801-37.01,0.5399  c-34.32,0.13-68.64,0.3501-102.96,0.5c-11,0.91-22.03,0.5-33.05,0.66c-28.69,0.12-57.37,0.34-86.05,0.39  c-25.64,0.91-51.3,0.46-76.95,0.77c-11.91,0.02-23.81,0.1799-35.71,0.11c-0.09-3.41-0.1801-6.8101-0.26-10.2001  c-0.22-31.83-0.47-63.6599-0.75-95.5c0.31-13.98-0.8-27.9399-0.55-41.9199c-0.22-27.67-0.2-55.35-0.9-83.01  c0.09-48.34-0.18-96.6801-1.09-145.01c-0.03-15.3199,0.16-30.64-0.46-45.95c-0.07-21.3501,0.03-42.7101-0.36-64.0601  c-0.3-27.65,0.19-55.3099-0.69-82.95c0.14-27.02-0.47-54.04-0.91-81.0601c0-51.35-0.55-102.6799-1.08-154.02  c-0.26-15.01,0.5-30.03-0.72-45c-0.35-10.97-0.08-21.95-0.19-32.92c0.01-33.69-0.76-67.37-0.55-101.06  c-0.77-20-0.29-40.01-0.52-60.02c-0.38-45.66-1.23-91.32-1.05-136.9901c-0.33-19.66-0.53-39.33-0.47-58.99  c0.11-15.34-0.62-30.66-0.65-45.99c-1-15.96-0.56-31.95-0.71-47.93c-0.1-27.67-0.07-55.35-0.41-83.02  c0.34-13.03-0.53-26.06-0.03-39.09c33.36-0.48,66.73-0.2,100.09-0.47c24.28-1.48,48.63-1.08,72.95-1.3  c24.6801-0.11,49.36-0.49,74.05-0.49C957.35,349.39,979.71,350.12,1002.03,348.9 M749.38,394.46c-3.64,0.55-6.23,3.71-7.82,6.8  c-0.82,8.54-0.72,17.16-0.58,25.74c-0.18,5.99-0.32,11.98,0.03,17.97c0.02,17.66-0.38,35.33,0.18,52.98  c-0.66,8.7,0.03,17.41,0.02,26.13c0.16,9.27-1.29,18.66,0.91,27.8c1.33,5.11-1.63,10-1.35,15.13c0.13,13.01-0.25,26.02,0.38,39.03  c-0.6801,18.32,0.47,36.67-0.32,55c0.25,12.66-0.01,25.33-0.08,37.9901c-0.17,5.4,2.89,10.62,1.33,16.0099  c-1.84,7.51-0.96,15.29-1.3,22.94c0.2,27.32-0.35,54.65,0.37,81.97c-0.83,12.32,0.35,24.66-0.33,36.99  c-0.35,3.41,1.02,6.62,1.59,9.92c-0.2,4.27-1.89,8.37-1.79,12.69c0.24,9.49,0.11,18.99,0.58,28.49c-0.09,11.65-0.83,23.3-0.22,34.95  c-0.16,17.68-0.18,35.36-0.16,53.04c0.4,8.64,0.03,17.34,1.41,25.92c0.81,5.67-2.09,11.06-1.63,16.72  c0.31,4.12,0.82,8.24,0.57,12.38c-0.72,11.6399-0.23,23.3099-0.37,34.97c0.07,16.3099-0.21,32.62,0.29,48.9299  c-0.6201,10.92,0.0099,21.8601-0.5,32.79c-0.2401,4.3,1.34,8.4,1.8,12.63c-0.14,3.26-1.34,6.39-1.21,9.6901  c0.16,7.3199-0.65,14.62-0.33,21.9399c0.31,9.33,0.01,18.66-0.06,28c0.11,27.99,0.46,55.98,0.09,83.97  c-0.21,5.4301,2.42,10.6901,1.34,16.12c-0.8,3.91-1.55,7.88-1.24,11.91c0.67,8.67-0.53,17.33-0.16,26.01  c0.39,17.67-0.31,35.35,0.11,53.03c0.35,11.64-0.52,23.2899,0.02,34.9399c0.35,6-0.46,12.01-0.14,18.02  c0.16,4.72,2.49,9.33,1.34,14.1c-2.51,11.12-0.97,22.5701-0.98,33.84c-0.88,18.65,0.05,37.3201-0.38,55.9901  c0.38,14.6899-0.43,29.3899,0.31,44.08c0.25,4.95-0.94,9.97,0.07,14.88c2.3,5.17,8.4,7.73,13.84,7.5499  c12.98-0.0299,25.98-0.1299,38.97,0.02c3.49,0.15,6.7-1.4299,10.06-2.09c3.42,0.16,6.44,2.4301,9.95,2.33  c96.69-0.0699,193.4-0.0499,290.1,0c2.86-0.08,5.0701-2.4199,7.9-2.58c3.14,0.37,5.83,2.64,9.09,2.4301  c14.3-0.3301,28.61-0.13,42.91-0.12c6.16,0.36,12.6801-5,12.26-11.42c-0.11-41.66,0.01-83.33-0.04-125  c-0.11-6.67,0.74-13.47-1.1-19.99c-1.0499-3.09-0.0599-6.26,0.51-9.3201c0.99-5.2,0.53-10.51,0.59-15.75  c0.02-41.3199-0.02-82.6499,0.01-123.97c0.1801-5.34-2.71-10.59-0.9099-15.86c1.24-4.61,0.97-9.4,0.8899-14.1  c0.04-43.3301-0.0499-86.67,0.0601-130c-0.0601-2.84-1.4301-5.4401-1.55-8.25c0.26-3.9501,1.41-7.78,1.5-11.74  c0.05-45.6901-0.08-91.39,0.04-137.0701c-0.24-2.8099-2.1-5.4199-1.5-8.28c0.67-3.54,1.49-7.08,1.49-10.69  c-0.0599-38.99,0.01-77.98-0.04-116.97c-0.12-8.69,0.7101-17.48-1.2-26.04c-1.12-3.75,1.09-7.25,1.22-10.95  c-0.02-46.34-0.01-92.7,0-139.05c-0.24-4.03-2.65-7.94-1.25-12.01c1.41-5.21,1.37-10.6299,1.23-15.98c0.03-38.67,0-77.33,0.01-116  c-0.0599-6.34,0.5701-12.78-1.12-18.97c-1.64-4.7,1.1801-9.27,1.15-13.98c-0.04-46.01-0.04-92.02-0.02-138.03  c0.47-4.19-2.71-7.35-5.9099-9.46c-2.7401-1.84-6.1801-1.76-9.3301-1.82c-12.6899,0.11-25.37,0.04-38.0499,0.07  c-3.9301-0.14-7.28,2.15-10.9901,2.92c-3.4399-0.59-6.33-3.25-9.97-2.95c-60.98,0.26-121.98-0.27-182.96,0.27  c-33-0.59-66.01,0.09-99.02-0.28c-3.46-0.05-7.04-0.34-10.33,0.95c-2.1299,0.53-4.3,1.99-6.52,1.12c-3.01-0.92-5.98-2.22-9.18-2.1  c-11.33,0.08-22.66,0.11-33.9901,0.05C756.43,393.79,752.86,393.81,749.38,394.46 M1187.7,1025.6899  c-2.9299,1.91-5.6599,4.8101-6.1399,8.39c-0.53,2.26-0.88,4.5801-0.8601,6.92c0.02,25.01,0,50.02,0,75.02  c-0.1,3.5,1.2301,6.9,3.51,9.5499c0.0601,0.2201,0.16,0.66,0.2201,0.89c5.61,5.04,14.0299,5.89,20.8999,3.12h0.75  c3.99-2.98,7.8-7.1899,7.64-12.5c0.0601-26.01-0.0499-52.0199-0.03-78.0299c0.0901-2.66-0.3899-5.28-1.47-7.7001  c-2.2-4.63-7.1899-7.66-12.26-7.79C1195.8101,1023.38,1191.28,1023.25,1187.7,1025.6899z"
     id="path37" /><path
     fill="#D1342F"
     stroke="#D1342F"
     stroke-width="0.0938"
     d="M749.38,394.46c3.48-0.65,7.05-0.67,10.59-0.68  c11.33,0.06,22.66,0.03,33.9901-0.05c3.2-0.12,6.17,1.18,9.18,2.1c2.22,0.87,4.39-0.59,6.52-1.12c3.29-1.29,6.8701-1,10.33-0.95  c33.01,0.37,66.02-0.31,99.02,0.28c60.98-0.54,121.98-0.01,182.96-0.27c3.64-0.3,6.53,2.36,9.97,2.95  c3.7101-0.77,7.0601-3.06,10.9901-2.92c12.6799-0.03,25.36,0.04,38.0499-0.07c3.15,0.06,6.59-0.02,9.3301,1.82  c3.2,2.11,6.3799,5.27,5.9099,9.46c-0.02,46.01-0.02,92.02,0.02,138.03c0.03,4.71-2.79,9.28-1.15,13.98  c1.6901,6.19,1.0601,12.63,1.12,18.97c-0.01,38.67,0.02,77.33-0.01,116c0.14,5.35,0.1801,10.77-1.23,15.98  c-1.4,4.07,1.01,7.98,1.25,12.01c-0.01,46.35-0.02,92.71,0,139.05c-0.13,3.7-2.34,7.2-1.22,10.95c1.91,8.56,1.08,17.35,1.2,26.04  c0.05,38.99-0.0199,77.98,0.04,116.97c0,3.61-0.8199,7.15-1.49,10.69c-0.6,2.86,1.26,5.47,1.5,8.28  c-0.12,45.6801,0.01,91.38-0.04,137.0701c-0.09,3.96-1.24,7.7899-1.5,11.74c0.12,2.8099,1.49,5.41,1.55,8.25  c-0.11,43.33-0.02,86.6699-0.0601,130c0.0801,4.7,0.3501,9.49-0.8899,14.1c-1.8,5.27,1.09,10.52,0.9099,15.86  c-0.03,41.3201,0.01,82.65-0.01,123.97c-0.0599,5.24,0.4,10.55-0.59,15.75c-0.5699,3.0601-1.5599,6.2301-0.51,9.3201  c1.84,6.52,0.99,13.3199,1.1,19.99c0.05,41.67-0.0699,83.34,0.04,125c0.42,6.42-6.1,11.78-12.26,11.42  c-14.3-0.01-28.61-0.2101-42.91,0.12c-3.26,0.21-5.95-2.0601-9.09-2.4301c-2.83,0.16-5.04,2.5-7.9,2.58  c-96.7-0.0499-193.41-0.0699-290.1,0c-3.51,0.1001-6.53-2.1699-9.95-2.33c-3.36,0.66-6.57,2.24-10.06,2.09  c-12.99-0.1499-25.99-0.0499-38.97-0.02c-5.44,0.1801-11.54-2.3799-13.84-7.5499c-1.01-4.91,0.18-9.9301-0.07-14.88  c-0.74-14.6901,0.07-29.39-0.31-44.08c0.43-18.67-0.5-37.3401,0.38-55.9901c0.01-11.2699-1.53-22.72,0.98-33.84  c1.15-4.77-1.1801-9.38-1.34-14.1c-0.32-6.01,0.49-12.02,0.14-18.02c-0.54-11.65,0.33-23.2999-0.02-34.9399  c-0.42-17.6801,0.28-35.36-0.11-53.03c-0.37-8.6801,0.83-17.34,0.16-26.01c-0.31-4.03,0.44-8,1.24-11.91  c1.08-5.4299-1.55-10.6899-1.34-16.12c0.37-27.99,0.02-55.98-0.09-83.97c0.07-9.34,0.37-18.67,0.06-28  c-0.3199-7.3199,0.4901-14.62,0.33-21.9399c-0.13-3.3,1.07-6.4301,1.21-9.6901c-0.46-4.23-2.04-8.33-1.8-12.63  c0.5099-10.9299-0.1201-21.87,0.5-32.79c-0.5-16.3099-0.22-32.62-0.29-48.9299c0.14-11.66-0.35-23.3301,0.37-34.97  c0.25-4.14-0.26-8.26-0.57-12.38c-0.46-5.66,2.44-11.05,1.63-16.72c-1.38-8.58-1.01-17.28-1.41-25.92  c-0.02-17.6801,0-35.36,0.16-53.04c-0.61-11.65,0.13-23.3,0.22-34.95c-0.47-9.5-0.34-19-0.58-28.49c-0.1-4.32,1.59-8.42,1.79-12.69  c-0.5699-3.3-1.94-6.51-1.59-9.92c0.68-12.33-0.5-24.67,0.33-36.99c-0.72-27.32-0.17-54.65-0.37-81.97  c0.34-7.65-0.54-15.43,1.3-22.94c1.56-5.39-1.5-10.61-1.33-16.0099c0.07-12.66,0.33-25.33,0.08-37.9901  c0.79-18.33-0.36-36.68,0.32-55c-0.63-13.0099-0.25-26.02-0.38-39.03c-0.28-5.13,2.68-10.02,1.35-15.13  c-2.2-9.14-0.75-18.53-0.91-27.8c0.0099-8.72-0.68-17.43-0.02-26.13c-0.56-17.65-0.16-35.32-0.18-52.98  c-0.35-5.99-0.21-11.98-0.03-17.97c-0.14-8.58-0.24-17.2,0.58-25.74C743.15,398.17,745.74,395.01,749.38,394.46 M1124.74,403.76  c-1.62,0.47-4.21-0.02-4.85,1.93c0.1,0.79,0.2999,2.37,0.4,3.16c-0.99,4.3-0.52,8.76-0.25,13.12c1.09,11.98,0.46,24.02,0.63,36.03  c-0.01,29.54,0.0199,59.07-0.02,88.61c14.86,0.42,29.77,0.58,44.62-0.05c1.6-4.7,0.98-9.72,1.03-14.58  c-0.01-31.01,0.0199-62.03-0.01-93.05c-0.1901-11.58,0.5299-23.2-0.48-34.75C1152.15,403.48,1138.41,402.77,1124.74,403.76   M751.27,404.13c-0.61,11.63-0.21,23.27-0.34,34.91c0.02,30.98,0.03,61.96,0.01,92.94c-0.01,4.89-0.44,9.88,0.92,14.65  c14.86-0.06,29.73,0.03,44.61-0.05c0.04-47.2-0.1899-94.4,0.11-141.6c-2.53-1.82-5.7-1.27-8.6-1.28  C775.74,403.94,763.47,403.01,751.27,404.13 M812.11,403.97c-0.53,4.99-0.52,10-0.44,15.01c-0.02,41,0.06,82.01-0.05,123.01  c0.01,1.64,0.36,3.32,1.32,4.7v0.06c49.84-0.15,99.68,0.05,149.51-0.1c10.35,2.03,21.01,0.03,31.47,0.04  c36.7401-0.03,73.4901,0,110.23-0.02c0.13-44.65,0.08-89.3,0.03-133.95c-0.01-2.67,0-5.34,0.08-8c-4.6-1.54-9.49-0.94-14.24-1  c-58.34,0-116.69,0-175.03,0.01C880.7,403.87,846.39,403.4,812.11,403.97 M751.72,547.62c7.3701,1.13,14.84,0.44,22.26,0.52  c7.45-0.18,14.95,0.62,22.36-0.51c-7.1-0.82-14.2401-0.24-21.35-0.38C767.23,547.4,759.46,546.87,751.72,547.62 M968.89,558.33  c1.82,0.27,3.65,0.61,5.5,0.77l1.26,0.2c-7.7401,0.43-15.57,0.32-23.19,1.92c-4.81-0.68-9.65-0.0699-14.47-0.1  c-16.66-0.58-33.32,0.26-49.97-0.12c-17.67,0.25-35.34-0.43-53.01,0c-7.65,0.46-15.31-0.46-22.94,0.33  c-0.72,6.55-0.42,13.14-0.45,19.71c-0.01,39-0.02,78.01,0,117.01c0.08,2.1,0.2,4.3,1.17,6.23c3.35,0.81,6.84,0.4399,10.26,0.48  c13.32-0.04,26.64,0.01,39.97-0.06c12,0.34,24.09-0.88,36.02,0.9c7.67,1.12,15.33-0.8199,23.02-0.74  c23.65-0.38,47.31-0.05,70.97-0.15c29.34,0.08,58.6799-0.06,88.02,0c7.76-0.31,15.6,0.56,23.3199-0.43  c1.5699-5.29,0.5699-10.9,0.79-16.32c0.02-19.31-0.02-38.62,0.01-57.92c-0.2001-23.04,0.4399-46.09-0.4-69.11  c-6.52-1.25-13.17-0.64-19.74-1.1c-12.02-0.74-24.0601-0.35-36.0801-0.85c-15.01,0.17-29.98-1.2-44.98-1.26  C992.28,557.86,980.54,557.12,968.89,558.33 M752.17,561.73c-0.01,47.22-0.03,94.45,0.01,141.67c14.75,0.05,29.49-0.02,44.23,0.02  c0.06-47.24,0.04-94.48,0.01-141.72C781.67,561.78,766.92,561.67,752.17,561.73 M1120.66,561.7c0.01,47.23,0.01,94.46,0,141.68  c13.4199,0.04,26.84-0.02,40.26,0.03c1.4099-0.0099,2.8199-0.02,4.26-0.02c0.0199-47.22,0.0399-94.44-0.01-141.66  c-1.4301-0.02-2.8401-0.03-4.2301-0.04C1147.51,561.64,1134.09,561.65,1120.66,561.7 M887.69,718.21  c-24.81,0.54-49.65,0.08-74.47,0.23c-0.06,47.23-0.0699,94.45,0.01,141.68c14.84,0.06,29.69-0.02,44.54,0.04  c82.14-0.0099,164.28,0.02,246.4199-0.0099c0.1801-47.5-0.21-95,0.1901-142.48c-1.41-0.62-2.97-0.19-4.17,0.69  c-62.08-0.92-124.16-3.53-186.2599-2.48C905.2,716.54,896.24,715.92,887.69,718.21 M1120.33,717.45  c-1.2899,5.77-0.71,11.7-0.76,17.56c0,31.65-0.0199,63.3,0,94.95c0.2301,10.29-0.46,20.6,0.41,30.87  c15.34,0.38,30.72,0.59,46.05,0.02c0.5599-5.95,0.33-11.93,0.33-17.9c0.14-40-0.0699-80.01,0.08-120  c-0.0199-1.59-0.5299-3.1-1.1299-4.52c-14.9601,0.06-29.92-0.1-44.88,0.08L1120.33,717.45 M752.15,718.47  c0.05,47.21-0.03,94.4301,0.03,141.65c14.77-0.18,29.58,0.5,44.33-0.38c-0.15-47.08-0.02-94.17-0.07-141.25  C781.68,718.39,766.91,718.45,752.15,718.47 M791.34,873.39c-13.35,1.03-26.77-0.41-40.11,0.73c-0.63,8.29-0.19,16.6-0.32,24.9  c0.05,29.67-0.05,59.34,0.02,89.01c0.17,9.96-0.38,19.93,0.33,29.87c12.58,0.81,25.2,0.0099,37.8,0.55c2.49-0.16,5.69,0.81,7.4-1.67  h0.07c-0.25-47.26,0.08-94.52-0.16-141.77l1.25-0.1C795.68,873.87,793.56,873.08,791.34,873.39 M812.72,874.95l0.03,0.43  c-1.83,4.31-1.01,9.07-1.12,13.61c0,41,0.02,81.99-0.01,122.99c-0.03,1.66,0.65,3.21,1.3,4.72l-0.01,0.27l0.4301-0.0099  c3.92,1.96,8.41,1.07,12.62,1.2c91.0099,0.28,182.03-0.0099,273.04,0.16c1.9-0.04,3.77-0.54,5.61-1.07l-0.4399-1.14  c0.09-46.73,0.0699-93.47,0.01-140.2l0.2799-1.17c-4.0299-1.44-8.33-1.1-12.51-1.05c-92.3199,0.13-184.66-0.16-276.96,0.2  C814.42,874.15,813.29,874.69,812.72,874.95 M1132.79,903.69c0.0299,5.44-0.0901,10.88,0.0599,16.33c0.25,2.27,0.02,5.03,1.99,6.66  c2.6-1.5,2-4.99,3.7101-7.08c2.74-1.69,6.1399-0.72,9.1799-0.93c-0.01-4.76-0.01-9.51-0.03-14.26  C1142.73,904.21,1137.76,903.82,1132.79,903.69 M1133.55,930.99c-1.4,6.44-0.53,13.08-0.74,19.61  c4.96,0.07,9.9199,0.06,14.8899,0.05c-0.48-7.2401,1.3601-14.91-1.5399-21.79c-1.13,1.19-2.67,2.34-2.5801,4.19  c-0.4199,4.24-0.0199,8.54-0.9399,12.74c-1.59-0.06-3.99,1.17-4.74-0.87c-1.11-5.17,0.03-10.61-1.5801-15.73  C1135.33,929.68,1133.61,929.53,1133.55,930.99 M1132.01,955.97c-1,2.9-0.59,6.04-0.7,9.07c0.1,3.83-0.53,7.94,1.35,11.48  c5.1899-0.19,10.5499,0.58,15.5499-1.24c-0.98-1.13-1.5299-2.66-2.9199-3.3c-2-1.02-4.36-1.58-5.9401-3.2  c-0.87-3.84-0.1799-7.82-0.71-11.69C1138.4399,953.93,1133.1,952.74,1132.01,955.97 M1133.6801,980.6  c-1.41,7.12-1.01,14.53-0.55,21.7401c4.9399-0.09,9.96,0.3,14.8-0.94c-0.7101-5.15-6.9601-3.55-10.5801-3.73  c-0.12-6.2,0.63-12.54-1.15-18.58C1135.5699,979.47,1134.3101,980.23,1133.6801,980.6 M752.06,1032.25  c0.22,47.1,0.07,94.1899,0.07,141.29l-1.2,0.2799c6.47,2.1801,13.38,0.8601,20.06,1.15c10.1-0.36,20.48,1.51,30.29-1.72  c0.12-0.4,0.37-1.21,0.49-1.61c-0.71-0.21-2.13-0.63-2.84-0.84c-0.53-17.5901-0.15-35.2101-0.23-52.8101  c-0.04-28.62,0.02-57.23-0.06-85.85c-0.56,0.02-1.67,0.0499-2.23,0.0699c-14.68,0-29.36-0.1599-44.04,0.0901L752.06,1032.25   M813.26,1032.1899c0.26,47.13-0.31,94.28,0.28,141.39c14.14-0.22,28.28-0.0399,42.42-0.09c82.74,0.03,165.49,0.03,248.2299,0  c0.0601-47.23,0.03-94.47,0.01-141.71c-84.7399-0.02-169.48-0.02-254.23,0C837.75,1032.5601,825.5,1032.0601,813.26,1032.1899   M1120.6801,1031.8101c-0.03,47.22,0.0099,94.4399-0.02,141.6699c13.4399,0.0601,26.89,0.01,40.33,0.03  c1.4-0.04,2.8-0.0701,4.22-0.09c-0.09-46.5,0.11-93.02-0.09-139.52c0.61-2.67-2.5699-1.79-4.13-2.22  C1147.55,1031.91,1134.11,1031.67,1120.6801,1031.8101 M811.87,1188.9399c-0.57,4.3501-0.17,8.76-0.23,13.14  c-0.12,42.8101,0.11,85.62-0.11,128.4301c5,1.6899,10.33,0.99,15.5099,1.0699c15.67-0.0299,31.34,0.11,47.01-0.01  c9.05-0.3899,17.98,1.4601,26.99,2.0701c9.23,1.48,18.58,0.8199,27.89,0.95c15.01,0.0901,30.02-0.02,45.04,0  c8.0601-0.1899,16.15,0.4401,24.1801-0.46c8.17-0.87,16.39-0.4,24.59-0.61l0.05-1.67c27.05-0.1799,54.07-1.58,81.1201-1.5699  c0.52-5.1,0.26-10.22,0.3099-15.3201c0.02-42.1899-0.0399-84.38,0.03-126.5699c-1.76-0.4-3.53-0.77-5.3101-0.85  c-94.02,0.0599-188.0499,0.01-282.0699,0.0299C815.17,1187.71,813.09,1187.51,811.87,1188.9399 M752.16,1188.54  c0.01,47.23-0.0099,94.46,0.01,141.6899c14.77-0.16,29.58,0.41,44.33-0.2999c-0.13-47.13-0.03-94.25-0.04-141.38  C781.69,1188.53,766.92,1188.52,752.16,1188.54 M1120.67,1188.53c-0.01,47.23,0.0199,94.47-0.01,141.7  c13.4099,0.1,26.83-0.15,40.24,0.14c1.2899-0.15,2.59-0.3199,3.9-0.51c0.76-3.26,0.2999-6.63,0.3999-9.9299  c-0.01-43.78-0.01-87.5701,0-131.3601c-1.4399-0.0299-2.87-0.0599-4.2799-0.0599C1147.5,1188.52,1134.08,1188.46,1120.67,1188.53   M793.66,1343.51c-11.54,0.29-23.09,0.2-34.6299,0.0599c-2.5,0.05-5.3101-0.2599-7.29,1.5801l0.02,0.22  c-1.64,4.37-0.94,9.08-1,13.63c0,32.33-0.03,64.66,0,96.99c0.15,10.66-0.38,21.34,0.35,31.99c15.04,0.87,30.13,0.14,45.19,0.4301  c0.73-1.54,1.95-2.9501,2.02-4.7001c-0.3-19.22-0.08-38.46-0.17-57.6799c0.15-25.91-0.21-51.8301,0.22-77.72  C798.25,1345.87,796.35,1343.14,793.66,1343.51 M812.18,1344.09c-0.52,4.61-0.68,9.25-0.57,13.89  c0.07,38.34-0.06,76.6801,0.05,115.02c0.11,4.25-0.8,8.79,1.25,12.75c0,0.36-0.0099,1.08-0.02,1.4399l0.28-0.0099  c4.05,1.74,8.52,0.97,12.79,1.0699c37,0.01,73.99-0.02,110.99-0.02c5.71-0.11,11.55,0.9,17.14-0.79  c1.15,0.26,2.3199,0.5,3.53,0.6901c4.08,2.22,8.83,2.46,13.38,2.51c24-0.03,48.01,0.09,72.01-0.13  c18.91-1.97,37.95-1.54,56.9299-2.12c1.53-0.14,3.29-0.22,4.42-1.4301c-0.4399-47.1799,0.16-94.37-0.29-141.5499l1.2301-0.1801  c-2.27-1.1-4.7301-1.66-7.2301-1.5499c-70.35,0.08-140.71-0.0901-211.0599,0.08C862.07,1344.16,837.11,1343.55,812.18,1344.09   M1120.66,1345.41c0.02,47.13,0.02,94.26,0,141.4c13.4299,0.0499,26.86,0.0499,40.2899-0.01c1.42,0.0599,2.8501,0.1499,4.3,0.2899  c1.71-3.83,0.89-8.08,0.96-12.11c0.0801-39.01,0.03-78.02,0.02-117.03c0.0601-4.5199,0.36-9.1-0.7999-13.5199l-0.1101,1.0199  C1150.4301,1345.1,1135.54,1345.17,1120.66,1345.41 M751.3,1501.24c-0.52,6.24-0.42,12.5-0.37,18.76c-0.02,32,0,64,0.01,96  c0.13,9.54-0.37,19.1,0.34,28.63c11.23,0.29,22.46,0.05,33.7,0.08c4.28,0.13,8.61,0.3101,12.81-0.71  c0.2-46.34-0.15-92.6899,0.17-139.04c-0.15-1.22,0.07-2.85-1.2401-3.46c-4.17-1.0601-8.52-0.5601-12.7599-0.6  C773.07,1501.2,762.18,1500.71,751.3,1501.24 M811.61,1501.54c-0.01,46.13,0.01,92.27,0.02,138.3999  c0.35,1.76-0.33,4.8201,2.04,5.3201c3.12,0.2,6.22-0.5601,9.35-0.54c85,0.04,170.01-0.02,255.01,0.04  c8.85-0.3101,17.77,0.6899,26.5699-0.61l-0.97-0.14c0.55-3.61,0.64-7.26,0.5699-10.88c0.04-43.8101,0.01-87.62,0.01-131.42  c-6.25-1.6799-12.77-0.6-19.14-0.87c-48.72,0.2201-97.4299-0.35-146.14,0.2101c-32-0.1001-63.99-0.01-95.99-0.01  C832.5,1501.33,822.01,1500.29,811.61,1501.54 M1119.95,1501.29c-0.6399,6.2-0.3199,12.45-0.36,18.6799  c0,27.3401-0.0699,54.67,0.02,82.01c0.0701,5.53-0.65,11.16,0.85,16.59c-0.26,6.5-1.5499,13.15,0.12,19.5901  c0.0601,1.75,0.0901,3.5,0.15,5.2999c14.89,0.01,29.79,0.3301,44.6801-0.0499l0.14,1.13c1.4199-5.74,0.73-11.67,0.87-17.5  c-0.0601-31.6801-0.01-63.36-0.04-95.04c-0.24-10.28,0.49-20.58-0.4-30.83c-5.33-0.42-10.6799-0.3401-16.01-0.3101  C1139.96,1500.95,1129.9301,1500.34,1119.95,1501.29z"
     id="path39" /><path
     fill="#B15651"
     stroke="#B15651"
     stroke-width="0.0938"
     d="M1124.74,403.76c13.67-0.99,27.41-0.28,41.0701,0.42  c1.0099,11.55,0.2899,23.17,0.48,34.75c0.0299,31.02,0,62.04,0.01,93.05c-0.05,4.86,0.5699,9.88-1.03,14.58  c-0.6-25.52-0.09-51.07-0.26-76.6c-0.01-21.59,0.03-43.19-0.02-64.78c-1.39-0.02-2.76-0.04-4.12-0.05c-7.63-0.16-15.23-1.13-22.86-1  c-5.62-0.06-11.15,1-16.74,1.31c-0.35,1.13-0.67,2.27-0.98,3.41c-0.1001-0.79-0.3-2.37-0.4-3.16  C1120.53,403.74,1123.12,404.23,1124.74,403.76z"
     id="path41" /><path
     fill="#B1433D"
     stroke="#B1433D"
     stroke-width="0.0938"
     d="M751.27,404.13c12.2-1.12,24.47-0.19,36.71-0.43  c2.9,0.01,6.07-0.54,8.6,1.28c-14.81,0.41-29.63,0.05-44.44,0.18c0.04,31.95,0.01,63.9,0.02,95.85c-0.18,15.21,0.38,30.43-0.3,45.62  c-1.36-4.77-0.93-9.76-0.92-14.65c0.02-30.98,0.01-61.96-0.01-92.94C751.06,427.4,750.66,415.76,751.27,404.13z"
     id="path43" /><path
     fill="#AF4A45"
     stroke="#AF4A45"
     stroke-width="0.0938"
     d="M812.11,403.97c34.28-0.57,68.59-0.1,102.88-0.24  c58.34-0.01,116.6901-0.01,175.03-0.01c4.75,0.06,9.64-0.54,14.24,1c-11.08,0.67-22.1901,0.14-33.28,0.31  c-85.95,0.04-171.91-0.08-257.85,0.06c-0.24,47.19,0.12,94.4-0.19,141.6c-0.96-1.38-1.31-3.06-1.32-4.7  c0.11-41,0.03-82.01,0.05-123.01C811.59,413.97,811.58,408.96,812.11,403.97z"
     id="path45" /><path
     fill="#FFFFFF"
     stroke="#FFFFFF"
     stroke-width="0.0938"
     d="M1121.27,405.44c5.59-0.31,11.12-1.37,16.74-1.31  c7.63-0.13,15.23,0.84,22.86,1l0.04,0.48c0.0599,46.88-0.0601,93.77,0.0599,140.65c-13.4399,0.08-26.9-0.37-40.3199,0.35  c0.0399-29.54,0.01-59.07,0.02-88.61c-0.17-12.01,0.46-24.05-0.63-36.03c-0.27-4.36-0.74-8.82,0.25-13.12  C1120.6,407.71,1120.92,406.57,1121.27,405.44z"
     id="path47" /><path
     fill="#E2E2E2"
     stroke="#E2E2E2"
     stroke-width="0.0938"
     d="M752.14,405.16c14.81-0.13,29.63,0.23,44.44-0.18  c-0.3,47.2-0.07,94.4-0.11,141.6c-14.8799,0.08-29.75-0.01-44.61,0.05c0.68-15.19,0.12-30.41,0.3-45.62  C752.15,469.06,752.18,437.11,752.14,405.16z"
     id="path49" /><path
     fill="#F6CBCB"
     stroke="#F6CBCB"
     stroke-width="0.0938"
     d="M813.13,405.09c85.94-0.14,171.9-0.02,257.85-0.06  c11.09-0.17,22.2001,0.36,33.28-0.31c-0.08,2.66-0.09,5.33-0.08,8l-0.9601,0.33c-0.0599-2.11-0.12-4.22-0.1599-6.32  c-91.3701-0.43-182.7401,0-274.1-0.21c-4.51,0.04-9.16-0.52-13.52,0.87c-1.61,5.04-0.71,10.42-0.85,15.61  c-0.02,39.02,0.0699,78.04-0.08,117.05c0.2,1.69-0.18,3.86,1.39,5.03c4.65,0.77,9.39,0.29,14.09,0.35  c37.65-0.07,75.3-0.02,112.96-0.03c5.51,0.06,11.07-0.44,16.56,0.34c0.97,0.29,1.95,0.59,2.94,0.91  c-49.83,0.15-99.67-0.05-149.51,0.1v-0.06C813.25,499.49,812.89,452.28,813.13,405.09z"
     id="path51" /><path
     fill="#FFD2CE"
     stroke="#FFD2CE"
     stroke-width="0.0938"
     d="M1160.87,405.13c1.36,0.01,2.73,0.03,4.12,0.05  c0.05,21.59,0.01,43.19,0.02,64.78c0.17,25.53-0.34,51.08,0.26,76.6c-0.7001-0.06-2.09-0.18-2.78-0.24c0.74-2.03,1.22-4.16,1.3-6.32  c-0.2201-44.36,0.0399-88.74-0.13-133.1c-0.6901-0.32-2.0701-0.97-2.75-1.29L1160.87,405.13z"
     id="path53" /><path
     fill="#E3E2E0"
     stroke="#E3E2E0"
     stroke-width="0.0938"
     d="M1160.91,405.61c0.6799,0.32,2.0599,0.97,2.75,1.29  c0.1699,44.36-0.0901,88.74,0.13,133.1c-0.0801,2.16-0.5601,4.29-1.3,6.32l-1.52-0.06C1160.85,499.38,1160.97,452.49,1160.91,405.61  z"
     id="path55" /><path
     fill="#E2E2E2"
     stroke="#E2E2E2"
     stroke-width="0.0938"
     d="M815.44,407.39c4.36-1.39,9.01-0.83,13.52-0.87  c91.36,0.21,182.73-0.22,274.1,0.21c0.0399,2.1,0.1,4.21,0.1599,6.32c-14.5699,4.79-28.5499,11.4-41.37,19.83  c-33.16,21.42-60.53,50.76-83.18,82.86c-6.9,9.66-12.79,19.99-19.16,30c-5.49-0.78-11.05-0.28-16.56-0.34  c-37.66,0.0099-75.31-0.04-112.96,0.03c-4.7-0.06-9.44,0.42-14.09-0.35c-1.57-1.17-1.19-3.34-1.39-5.03  c0.15-39.01,0.06-78.03,0.08-117.05C814.73,417.81,813.83,412.43,815.44,407.39z"
     id="path57" /><path
     fill="#FFFFFF"
     stroke="#FFFFFF"
     stroke-width="0.0938"
     d="M1061.85,432.88c12.8201-8.43,26.8-15.04,41.37-19.83l0.9601-0.33  c0.0499,44.65,0.1,89.3-0.03,133.95c-36.74,0.02-73.49-0.01-110.23,0.02c-10.46-0.01-21.12,1.99-31.47-0.04  c-0.99-0.32-1.97-0.62-2.94-0.91c6.37-10.01,12.26-20.34,19.16-30C1001.32,483.64,1028.6899,454.3,1061.85,432.88z"
     id="path59" /><path
     fill="#FEB8B7"
     stroke="#FEB8B7"
     stroke-width="0.0938"
     d="M1120.65,546.61c13.4199-0.72,26.88-0.27,40.3199-0.35l1.52,0.06  c0.6901,0.06,2.08,0.18,2.78,0.24C1150.42,547.19,1135.51,547.03,1120.65,546.61z"
     id="path61" /><path
     fill="#B6403F"
     stroke="#B6403F"
     stroke-width="0.0938"
     d="M751.72,547.62c7.7401-0.75,15.51-0.22,23.27-0.37  c7.11,0.14,14.25-0.44,21.35,0.38c-7.41,1.13-14.91,0.33-22.36,0.51C766.56,548.06,759.09,548.75,751.72,547.62z"
     id="path63" /><path
     fill="#B2403E"
     stroke="#B2403E"
     stroke-width="0.0938"
     d="M968.89,558.33c11.65-1.21,23.39-0.47,35.08-0.61  c15,0.0601,29.97,1.4301,44.98,1.26c12.02,0.5,24.0601,0.11,36.0801,0.85c6.5699,0.46,13.22-0.15,19.74,1.1  c0.84,23.02,0.2,46.07,0.4,69.11c-0.03,19.3,0.01,38.61-0.01,57.92c-0.2201,5.42,0.7799,11.03-0.79,16.32  c-7.72,0.99-15.5599,0.12-23.3199,0.43c-29.3401-0.06-58.6801,0.08-88.02,0c-23.66,0.1-47.32-0.23-70.97,0.15  c-7.69-0.08-15.35,1.86-23.02,0.74c-11.93-1.78-24.02-0.56-36.02-0.9c-13.33,0.07-26.65,0.02-39.97,0.06  c-3.42-0.04-6.91,0.33-10.26-0.48c-0.97-1.9301-1.09-4.13-1.17-6.23c-0.02-39-0.01-78.01,0-117.01c0.03-6.57-0.27-13.16,0.45-19.71  c7.63-0.79,15.29,0.13,22.94-0.33c17.67-0.43,35.34,0.25,53.01,0c16.65,0.38,33.31-0.46,49.97,0.12c4.82,0.03,9.66-0.58,14.47,0.1  c-0.6,0.1-1.8,0.3-2.4,0.41c-45.62,0.25-91.24,0.1-136.86,0.09c-0.05,47.21-0.03,94.42-0.01,141.63  c26.23,0.09,52.46-0.0699,78.68,0.07c14,2.3,28.09-0.34,42.15-0.07c56.72,0.02,113.4399,0.02,170.16,0  c0-47.21,0.0299-94.42-0.02-141.63c-30.63-0.4-61.24-1.85-91.8701-2.29c-12.61-0.81-25.27-0.37-37.9-0.33  C972.54,558.94,970.71,558.6,968.89,558.33z"
     id="path65" /><path
     fill="#F0280E"
     stroke="#F0280E"
     stroke-width="0.0938"
     d="M974.39,559.1c12.63-0.04,25.29-0.48,37.9,0.33  c-12.21-0.21-24.43-0.09-36.64-0.13L974.39,559.1z"
     id="path67" /><path
     fill="#FFFFFF"
     stroke="#FFFFFF"
     stroke-width="0.0938"
     d="M952.46,561.22c7.62-1.6,15.45-1.49,23.19-1.92  c12.21,0.04,24.43-0.08,36.64,0.13c30.6301,0.44,61.2401,1.89,91.8701,2.29c0.0499,47.21,0.02,94.42,0.02,141.63  c-56.7201,0.02-113.4401,0.02-170.16,0c-14.06-0.27-28.15,2.37-42.15,0.07c2.93-10.94,6.73-21.61,10.26-32.36  c8.61-25.45,17.6-50.81,28.32-75.46c5.38-11.91,10.66-24.22,19.61-33.97C950.66,561.52,951.86,561.32,952.46,561.22z"
     id="path69" /><path
     fill="#E2E2E2"
     stroke="#E2E2E2"
     stroke-width="0.0938"
     d="M752.17,561.73c14.75-0.06,29.5,0.05,44.25-0.03  c0.03,47.24,0.05,94.48-0.01,141.72c-14.74-0.04-29.48,0.03-44.23-0.02C752.14,656.18,752.16,608.95,752.17,561.73z"
     id="path71" /><path
     fill="#E2E2E2"
     stroke="#E2E2E2"
     stroke-width="0.0938"
     d="M813.2,561.72c45.62,0.01,91.24,0.16,136.86-0.09  c-8.95,9.75-14.23,22.06-19.61,33.97c-10.72,24.65-19.71,50.01-28.32,75.46c-3.53,10.75-7.33,21.42-10.26,32.36  c-26.22-0.14-52.45,0.02-78.68-0.07C813.17,656.14,813.15,608.93,813.2,561.72z"
     id="path73" /><path
     fill="#FFFFFF"
     stroke="#FFFFFF"
     stroke-width="0.0938"
     d="M1120.66,561.7c13.4299-0.05,26.85-0.06,40.2799-0.01  c-0.0299,47.24,0.01,94.48-0.0199,141.72c-13.42-0.05-26.8401,0.01-40.26-0.03C1120.67,656.16,1120.67,608.93,1120.66,561.7z"
     id="path75" /><path
     fill="#E9DFDE"
     stroke="#E9DFDE"
     stroke-width="0.0938"
     d="M1160.9399,561.69c1.39,0.01,2.8,0.02,4.2301,0.04  c0.0499,47.22,0.0299,94.44,0.01,141.66c-1.4401,0-2.8501,0.01-4.26,0.02C1160.95,656.17,1160.91,608.93,1160.9399,561.69z"
     id="path77" /><path
     fill="#FFFFFF"
     stroke="#FFFFFF"
     stroke-width="0.0938"
     d="M887.69,718.21c8.55-2.29,17.51-1.67,26.26-2.33  c62.1-1.05,124.18,1.56,186.2599,2.48c1.2001-0.88,2.76-1.31,4.17-0.69c-0.4,47.48-0.01,94.98-0.1901,142.48  c-82.14,0.03-164.28,0-246.4199,0.0099c2.9-21.37,6.87-42.5699,10.71-63.78c4.28-22.92,8.44-45.91,14.48-68.45  C883.86,724.42,885.02,720.8,887.69,718.21z"
     id="path79" /><path
     fill="#E2E2E2"
     stroke="#E2E2E2"
     stroke-width="0.0938"
     d="M813.22,718.44c24.82-0.15,49.66,0.31,74.47-0.23  c-2.67,2.59-3.83,6.21-4.73,9.72c-6.04,22.54-10.2,45.53-14.48,68.45c-3.84,21.21-7.81,42.41-10.71,63.78  c-14.85-0.06-29.7,0.02-44.54-0.04C813.15,812.89,813.16,765.67,813.22,718.44z"
     id="path81" /><path
     fill="#B2403E"
     stroke="#B2403E"
     stroke-width="0.0938"
     d="M1120.33,717.45l0.1001,1.06c0.61,9.81,0.11,19.66,0.2699,29.49  c0,37.38,0,74.75,0,112.12c13.41-0.01,26.8201,0.01,40.2301,0.01c1.2799-0.07,2.58-0.2,3.88-0.39  c0.7799-9.22,0.1-18.51,0.3199-27.76c0.12-37.85-0.24-75.71,0.1801-113.55c0.6,1.42,1.11,2.93,1.1299,4.52  c-0.1499,39.99,0.0601,80-0.08,120c0,5.97,0.23,11.95-0.33,17.9c-15.3301,0.57-30.7101,0.36-46.05-0.02  c-0.87-10.27-0.1799-20.58-0.41-30.87c-0.0199-31.65,0-63.3,0-94.95C1119.62,729.15,1119.04,723.22,1120.33,717.45z"
     id="path83" /><path
     fill="#FFFFFF"
     stroke="#FFFFFF"
     stroke-width="0.0938"
     d="M1120.4301,718.51c14.96-0.18,29.9199-0.02,44.88-0.08  c-1.4701,0.24-2.9301,0.49-4.3701,0.75c-0.0699,46.98-0.0399,93.97-0.0099,140.95c-13.41,0-26.8201-0.02-40.2301-0.01  c0-37.37,0-74.74,0-112.12C1120.54,738.17,1121.04,728.32,1120.4301,718.51z"
     id="path85" /><path
     fill="#E2E2E2"
     stroke="#E2E2E2"
     stroke-width="0.0938"
     d="M752.15,718.47c14.7599-0.02,29.53-0.08,44.29,0.02  c0.05,47.08-0.08,94.17,0.07,141.25c-14.75,0.88-29.56,0.2-44.33,0.38C752.12,812.9,752.2,765.68,752.15,718.47z"
     id="path87" /><path
     fill="#EAE0E0"
     stroke="#EAE0E0"
     stroke-width="0.0938"
     d="M1160.9399,719.18c1.4401-0.26,2.9-0.51,4.3701-0.75  c-0.42,37.84-0.0601,75.7-0.1801,113.55c-0.22,9.25,0.46,18.54-0.3199,27.76c-1.3,0.19-2.6001,0.32-3.88,0.39  C1160.9,813.15,1160.87,766.16,1160.9399,719.18z"
     id="path89" /><path
     fill="#B2403C"
     stroke="#B2403C"
     stroke-width="0.0938"
     d="M791.34,873.39c2.22-0.31,4.34,0.48,6.28,1.52l-1.25,0.1  c-14.74,0.53-29.49,0.07-44.23,0.21c0.03,47.16,0.02,94.33,0.01,141.5c14.77,0.04,29.54-0.08,44.31,0.0601  c-1.71,2.48-4.91,1.5099-7.4,1.67c-12.6-0.54-25.22,0.26-37.8-0.55c-0.71-9.94-0.16-19.91-0.33-29.87  c-0.07-29.67,0.03-59.34-0.02-89.01c0.13-8.3-0.31-16.61,0.32-24.9C764.57,872.98,777.99,874.42,791.34,873.39z"
     id="path91" /><path
     fill="#AF4744"
     stroke="#AF4744"
     stroke-width="0.0938"
     d="M812.72,874.95c0.57-0.26,1.7-0.8,2.27-1.06  c92.3-0.36,184.64-0.07,276.96-0.2c4.1801-0.05,8.4801-0.39,12.51,1.05c-9.45,0.62-18.9199,0.2-28.38,0.3  c-81.6799,0.05-163.35-0.09-245.02,0.09C824.94,875.07,818.82,875.29,812.72,874.95z"
     id="path93" /><path
     fill="#E2E2E2"
     stroke="#E2E2E2"
     stroke-width="0.0938"
     d="M752.14,875.22c14.74-0.14,29.49,0.32,44.23-0.21  c0.24,47.25-0.09,94.51,0.16,141.77h-0.07c-14.77-0.14-29.54-0.02-44.31-0.0601C752.16,969.55,752.17,922.38,752.14,875.22z"
     id="path95" /><path
     fill="#FECBCA"
     stroke="#FECBCA"
     stroke-width="0.0938"
     d="M812.72,874.95c6.1,0.34,12.22,0.12,18.34,0.18  c81.67-0.18,163.34-0.04,245.02-0.09c9.4601-0.1,18.9301,0.32,28.38-0.3l-0.2799,1.17c-78.7101-0.42-157.4301,0.02-236.15-0.19  c-4.22-0.04-8.45,0.1-12.66,0.3701c-13.66,0.62-27.34,0.0699-41.01,0.3c-0.02,46.41,0.02,92.81-0.03,139.22  c10.79,0.21,21.59-0.24,32.38,0.33c24.07,0.67,48.16,0.09,72.24,0.28c61.74-0.05,123.48,0.13,185.22-0.11l0.4399,1.14  c-24.1899-0.63-48.4-0.09-72.59-0.27c-56.34-0.01-112.67,0.01-169-0.01c-16.56,0.1-33.12-0.45-49.68-0.0099l-0.4301,0.0099  l0.01-0.27c0.33-29.22,0.05-58.46,0.14-87.69c-0.19-17.87,0.4-35.77-0.31-53.63L812.72,874.95z"
     id="path97" /><path
     fill="#AC4340"
     stroke="#AC4340"
     stroke-width="0.0938"
     d="M811.63,888.99c0.11-4.54-0.71-9.3,1.12-13.61  c0.71,17.86,0.12,35.76,0.31,53.63c-0.09,29.23,0.19,58.47-0.14,87.69c-0.65-1.51-1.33-3.06-1.3-4.72  C811.65,970.98,811.63,929.99,811.63,888.99z"
     id="path99" /><path
     fill="#E2E2E2"
     stroke="#E2E2E2"
     stroke-width="0.0938"
     d="M814.36,876.39c13.67-0.23,27.35,0.32,41.01-0.3  c-2.27,21.94-4.55,43.9-5.77,65.94c-1.33,24.62-2.65,49.25-2.89,73.91c-10.79-0.57-21.59-0.12-32.38-0.33  C814.38,969.2,814.34,922.8,814.36,876.39z"
     id="path101" /><path
     fill="#FFFFFF"
     stroke="#FFFFFF"
     stroke-width="0.0938"
     d="M855.37,876.09c4.21-0.27,8.44-0.41,12.66-0.3701  c78.72,0.21,157.4399-0.23,236.15,0.19c0.0599,46.73,0.08,93.47-0.01,140.2c-61.74,0.24-123.48,0.06-185.22,0.11  c-24.08-0.1899-48.17,0.39-72.24-0.28c0.24-24.66,1.56-49.29,2.89-73.91C850.82,919.99,853.1,898.03,855.37,876.09z"
     id="path103" /><path
     fill="#FFFDFB"
     stroke="#FFFDFB"
     stroke-width="0.0938"
     d="M1132.79,903.69c4.97,0.13,9.9399,0.52,14.9099,0.72  c0.02,4.75,0.02,9.5,0.03,14.26c-3.04,0.21-6.4399-0.76-9.1799,0.93c-1.7101,2.09-1.1101,5.58-3.7101,7.08  c-1.97-1.63-1.74-4.39-1.99-6.66C1132.7,914.57,1132.8199,909.13,1132.79,903.69 M1137.41,911.04c-0.0601,3.09,3.21,3.96,5.72,4  c-0.0601-2.18,0.71-4.7-0.85-6.5099C1140.28,907.69,1137.17,908.39,1137.41,911.04z"
     id="path105" /><path
     fill="#C43A35"
     stroke="#C43A35"
     stroke-width="0.0938"
     d="M1137.41,911.04c-0.24-2.65,2.87-3.35,4.87-2.5099  c1.5599,1.81,0.7899,4.33,0.85,6.5099C1140.62,915,1137.35,914.13,1137.41,911.04z"
     id="path107" /><path
     fill="#FFFCFB"
     stroke="#FFFCFB"
     stroke-width="0.0938"
     d="M1133.55,930.99c0.0599-1.46,1.7799-1.31,2.7699-1.8  c1.6101,5.12,0.4701,10.56,1.5801,15.73c0.75,2.04,3.15,0.81,4.74,0.87c0.92-4.2,0.52-8.5,0.9399-12.74  c-0.09-1.85,1.4501-3,2.5801-4.19c2.9,6.88,1.0599,14.55,1.5399,21.79c-4.97,0.0099-9.9299,0.02-14.8899-0.05  C1133.02,944.07,1132.15,937.43,1133.55,930.99z"
     id="path109" /><path
     fill="#B2403E"
     stroke="#B2403E"
     stroke-width="0.0938"
     d="M1132.01,955.97c1.09-3.23,6.4299-2.04,6.63,1.1201  c0.53,3.87-0.16,7.85,0.71,11.69c1.5801,1.62,3.9401,2.18,5.9401,3.2c-2.66-0.21-5.3201-0.17-7.9601-0.18  c0.03-5.73,0.27-11.52-1.0599-17.13c-1.16,0.89-3,1.44-2.96,3.22c-0.9801,6.16-0.17,12.43-0.65,18.63  c-1.88-3.54-1.25-7.65-1.35-11.48C1131.42,962.01,1131.01,958.87,1132.01,955.97z"
     id="path111" /><path
     fill="#FFFBFA"
     stroke="#FFFBFA"
     stroke-width="0.0938"
     d="M1133.3101,957.89c-0.04-1.78,1.7999-2.33,2.96-3.22  c1.33,5.61,1.09,11.4,1.0599,17.13c2.64,0.01,5.3-0.03,7.9601,0.18c1.39,0.64,1.9399,2.17,2.9199,3.3  c-5,1.8199-10.36,1.05-15.5499,1.24C1133.14,970.32,1132.33,964.05,1133.3101,957.89z"
     id="path113" /><path
     fill="#FFFBFB"
     stroke="#FFFBFB"
     stroke-width="0.0938"
     d="M1133.6801,980.6c0.63-0.37,1.8899-1.13,2.5199-1.5099  c1.78,6.04,1.03,12.3799,1.15,18.58c3.62,0.18,9.87-1.42,10.5801,3.73c-4.8401,1.24-9.8601,0.85-14.8,0.94  C1132.67,995.13,1132.27,987.72,1133.6801,980.6z"
     id="path115" /><path
     fill="#AA4341"
     stroke="#AA4341"
     stroke-width="0.0938"
     d="M813.34,1016.96c16.56-0.44,33.12,0.11,49.68,0.0099  c56.33,0.02,112.66,0,169,0.01c24.1899,0.18,48.4-0.36,72.59,0.27c-1.84,0.53-3.71,1.03-5.61,1.07  c-91.01-0.17-182.03,0.12-273.04-0.16C821.75,1018.03,817.26,1018.92,813.34,1016.96z"
     id="path117" /><path
     fill="#E2E2E2"
     stroke="#E2E2E2"
     stroke-width="0.0938"
     d="M752.06,1032.25l0.31,0.05c14.25,1.73,28.67,0.25,42.99,0.5699  c0.29,42.03-0.04,84.0601,0.16,126.09c0,4.23,0.43,8.5901-0.83,12.7101c-5.17,1.0399-10.51,0.09-15.73,0.6699  c-8.75,0.73-17.68-1.0399-26.29,1.0801l-0.54,0.12C752.13,1126.4399,752.28,1079.35,752.06,1032.25z"
     id="path119" /><path
     fill="#FFFDFB"
     stroke="#FFFDFB"
     stroke-width="0.0938"
     d="M752.37,1032.3c14.68-0.25,29.36-0.0901,44.04-0.0901  c-0.1,47.0601-0.0099,94.12-0.05,141.1801c-14.56,0.0499-29.13-0.0701-43.69,0.03c8.61-2.12,17.54-0.3501,26.29-1.0801  c5.22-0.58,10.56,0.37,15.73-0.6699c1.26-4.12,0.83-8.4801,0.83-12.7101c-0.2-42.0299,0.13-84.0599-0.16-126.09  C781.04,1032.55,766.62,1034.03,752.37,1032.3z"
     id="path121" /><path
     fill="#BC3D37"
     stroke="#BC3D37"
     stroke-width="0.0938"
     d="M796.41,1032.21c0.56-0.02,1.67-0.0499,2.23-0.0699  c0.08,28.62,0.02,57.23,0.06,85.85c0.08,17.6-0.3,35.22,0.23,52.8101c0.71,0.21,2.13,0.63,2.84,0.84c-0.12,0.4-0.37,1.21-0.49,1.61  c-9.8101,3.23-20.19,1.36-30.29,1.72c-6.68-0.2899-13.59,1.03-20.06-1.15l1.2-0.2799l0.54-0.12  c14.56-0.1001,29.13,0.0199,43.69-0.03C796.4,1126.33,796.31,1079.27,796.41,1032.21z"
     id="path123" /><path
     fill="#FFFFFF"
     stroke="#FFFFFF"
     stroke-width="0.0938"
     d="M813.26,1032.1899c12.24-0.1299,24.49,0.3701,36.71-0.4099  c84.75-0.02,169.4901-0.02,254.23,0c0.02,47.24,0.05,94.48-0.01,141.71c-82.7399,0.03-165.4899,0.03-248.2299,0  c-5.69-46.5699-8.36-93.46-9.3-140.35c-10.83-0.17-21.66-0.24-32.49,0.03c-0.17,39.6-0.04,79.21-0.07,118.8099  c-0.0699,7.2001,0.36,14.4301-0.56,21.6C812.95,1126.47,813.52,1079.3199,813.26,1032.1899z"
     id="path125" /><path
     fill="#FFFFFF"
     stroke="#FFFFFF"
     stroke-width="0.0938"
     d="M1120.6801,1031.8101c13.4299-0.14,26.87,0.1,40.3099-0.13  c-0.0599,47.2799-0.09,94.5499,0,141.83c-13.4399-0.02-26.89,0.03-40.33-0.03  C1120.6899,1126.25,1120.65,1079.03,1120.6801,1031.8101z"
     id="path127" /><path
     fill="#EAE0DC"
     stroke="#EAE0DC"
     stroke-width="0.0938"
     d="M1160.99,1031.6801c1.5601,0.4299,4.74-0.4501,4.13,2.22  c0.2,46.5,0,93.02,0.09,139.52c-1.4199,0.0199-2.8199,0.0499-4.22,0.09C1160.9,1126.23,1160.9301,1078.96,1160.99,1031.6801z"
     id="path129" /><path
     fill="#E2E2E2"
     stroke="#E2E2E2"
     stroke-width="0.0938"
     d="M814.17,1033.17c10.83-0.27,21.66-0.2001,32.49-0.03  c0.94,46.89,3.61,93.78,9.3,140.35c-14.14,0.05-28.28-0.13-42.42,0.09c0.92-7.1699,0.4901-14.3999,0.56-21.6  C814.13,1112.38,814,1072.77,814.17,1033.17z"
     id="path131" /><path
     fill="#ECECEA"
     d="M1213.6899,1039.05c0.0901-2.66-0.3899-5.28-1.47-7.7001c-2.2-4.63-7.1899-7.66-12.26-7.79  c-4.1499-0.18-8.6799-0.31-12.26,2.1299c-2.9299,1.91-5.6599,4.8101-6.1399,8.39c-0.53,2.26-0.88,4.5801-0.8601,6.92  c0.02,25.01,0,50.02,0,75.02c-0.1,3.5,1.2301,6.9,3.51,9.5499c0.0601,0.2201,0.16,0.66,0.2201,0.89  c5.61,5.04,14.0299,5.89,20.8999,3.12h0.75c3.99-2.98,7.8-7.1899,7.64-12.5C1213.78,1091.0699,1213.67,1065.0601,1213.6899,1039.05z  "
     id="path133" /><path
     fill="#B2403E"
     stroke="#B2403E"
     stroke-width="0.0938"
     d="M811.87,1188.9399c1.22-1.4299,3.3-1.23,5-1.37  c94.02-0.0199,188.05,0.03,282.0699-0.0299c1.78,0.08,3.55,0.45,5.3101,0.85c-82.11,0.33-164.22,0.02-246.34,0.15  c-14.89,0.0299-29.79,0.0699-44.68-0.02c-0.19,47.0699,0.11,94.15-0.15,141.22h0.25c19.21,0.1901,38.42-0.05,57.63,0.0601  c5.71,0.11,11.47-0.4501,17.12,0.63c10.49,2.22,21.27,2.0599,31.94,2.33c34.26,0.24,68.52,0.08,102.77-0.91l-0.05,1.67  c-8.2,0.21-16.42-0.26-24.59,0.61c-8.03,0.9-16.12,0.27-24.1801,0.46c-15.02-0.02-30.03,0.0901-45.04,0  c-9.31-0.13-18.66,0.53-27.89-0.95c-9.0099-0.61-17.94-2.46-26.99-2.0701c-15.67,0.12-31.34-0.0199-47.01,0.01  c-5.18-0.08-10.5099,0.62-15.5099-1.0699c0.22-42.8101-0.01-85.62,0.11-128.4301C811.7,1197.7,811.3,1193.29,811.87,1188.9399z"
     id="path135" /><path
     fill="#E2E2E2"
     stroke="#E2E2E2"
     stroke-width="0.0938"
     d="M752.16,1188.54c14.76-0.02,29.53-0.01,44.3,0.01  c0.0099,47.13-0.09,94.25,0.04,141.38c-14.75,0.71-29.56,0.1399-44.33,0.2999C752.15,1283,752.17,1235.77,752.16,1188.54z"
     id="path137" /><path
     fill="#E2E2E2"
     stroke="#E2E2E2"
     stroke-width="0.0938"
     d="M813.08,1329.74c0.26-47.0699-0.04-94.15,0.15-141.22  c14.89,0.09,29.79,0.0499,44.68,0.02c7,42.02,14.05,84.1,24.06,125.52c1.23,5.0499,2.86,9.99,4.6801,14.86  c-11.21,0.39-22.42-0.1001-33.64,0.0299c-13.22,0.17-26.48-0.45-39.68,0.79H813.08z"
     id="path139" /><path
     fill="#FFFFFF"
     stroke="#FFFFFF"
     stroke-width="0.0938"
     d="M857.91,1188.54c82.1201-0.13,164.23,0.1799,246.34-0.15  c-0.0699,42.1899-0.01,84.38-0.03,126.5699c-0.0499,5.1001,0.2101,10.2201-0.3099,15.3201c-27.05-0.01-54.0701,1.39-81.1201,1.5699  c-34.25,0.99-68.5099,1.15-102.77,0.91c-10.67-0.27-21.45-0.11-31.94-2.33c-5.65-1.0801-11.41-0.52-17.12-0.63  c-19.21-0.1101-38.42,0.13-57.63-0.0601c13.2-1.24,26.46-0.62,39.68-0.79c11.22-0.13,22.43,0.3601,33.64-0.0299  c-1.82-4.87-3.45-9.8101-4.6801-14.86C871.96,1272.64,864.91,1230.5601,857.91,1188.54z"
     id="path141" /><path
     fill="#FFFFFF"
     stroke="#FFFFFF"
     stroke-width="0.0938"
     d="M1120.67,1188.53c13.4099-0.0701,26.83-0.01,40.25-0.02  c0.0399,47.28,0.0199,94.5699-0.02,141.86c-13.41-0.29-26.8301-0.04-40.24-0.14C1120.6899,1283,1120.66,1235.76,1120.67,1188.53z"
     id="path143" /><path
     fill="#EBE0DD"
     stroke="#EBE0DD"
     stroke-width="0.0938"
     d="M1160.92,1188.51c1.4099,0,2.84,0.03,4.2799,0.0599  c-0.01,43.79-0.01,87.5801,0,131.3601c-0.1,3.2999,0.3601,6.6699-0.3999,9.9299c-1.3101,0.1901-2.6101,0.36-3.9,0.51  C1160.9399,1283.08,1160.96,1235.79,1160.92,1188.51z"
     id="path145" /><path
     fill="#BC3D37"
     stroke="#BC3D37"
     stroke-width="0.0938"
     d="M793.66,1343.51c2.69-0.37,4.59,2.36,4.71,4.8  c-0.43,25.8899-0.07,51.8099-0.22,77.72c0.09,19.22-0.13,38.46,0.17,57.6799c-0.07,1.75-1.29,3.16-2.02,4.7001  c-15.06-0.29-30.15,0.4399-45.19-0.4301c-0.73-10.65-0.2-21.33-0.35-31.99c-0.03-32.33,0-64.66,0-96.99c0.06-4.55-0.64-9.26,1-13.63  c0.85,9.85,0.2,19.76,0.4,29.64c0,37.27,0.01,74.53-0.0099,111.8c14.7599,0.0099,29.5099,0.0099,44.27-0.01  c0.03-47.14-0.03-94.28,0.03-141.4301c-14.91-0.21-29.82,0.21-44.71-0.22c1.98-1.84,4.79-1.53,7.29-1.5801  C770.57,1343.71,782.12,1343.8,793.66,1343.51z"
     id="path147" /><path
     fill="#AF423F"
     stroke="#AF423F"
     stroke-width="0.0938"
     d="M812.18,1344.09c24.93-0.5399,49.89,0.0701,74.83-0.33  c70.35-0.17,140.71,0,211.0599-0.08c2.5-0.1101,4.9601,0.45,7.2301,1.5499c-50.0801-0.45-100.1901-0.0599-150.28-0.2  c-47.32-0.04-94.63,0.1899-141.95,0.14c-0.22,46.86,0.09,93.72-0.16,140.58c-2.05-3.96-1.14-8.5-1.25-12.75  c-0.11-38.34,0.02-76.6801-0.05-115.02C811.5,1353.34,811.66,1348.7,812.18,1344.09z"
     id="path149" /><path
     fill="#E2E2E2"
     stroke="#E2E2E2"
     stroke-width="0.0938"
     d="M751.74,1345.15c14.89,0.4299,29.8,0.01,44.71,0.22  c-0.06,47.15,0,94.29-0.03,141.4301c-14.76,0.0199-29.51,0.0199-44.27,0.01c0.02-37.27,0.0099-74.53,0.0099-111.8  c-0.2-9.88,0.45-19.79-0.4-29.64L751.74,1345.15z"
     id="path151" /><path
     fill="#FEBDBA"
     stroke="#FEBDBA"
     stroke-width="0.0938"
     d="M813.07,1345.17c47.32,0.0499,94.63-0.1801,141.95-0.14  c50.09,0.14,100.2-0.25,150.28,0.2l-1.2301,0.1801c-9.6599,1.09-19.4199,0.1599-29.11,0.47c-54.65-0.01-109.3,0.02-163.95-0.02  c-6.11-0.0599-12.22,0.03-18.31,0.33c-26.12,0.3301-52.25,0-78.37,0.14c-0.23,46.4501-0.17,92.9-0.05,139.36  c39.24,0.25,78.47,0.01,117.71,0.1001c6.23,0.11,12.5-0.41,18.73,0.1899c0.46,0.27,1.39,0.79,1.85,1.05  c-46.46,0.0399-92.94-0.24-139.4,0.15l-0.28,0.0099c0.01-0.36,0.02-1.08,0.02-1.4399C813.16,1438.89,812.85,1392.03,813.07,1345.17z  "
     id="path153" /><path
     fill="#EADFDD"
     stroke="#EADFDD"
     stroke-width="0.0938"
     d="M1120.66,1345.41c14.88-0.24,29.77-0.3101,44.6599,0.0399  c-0.86,10.17-0.1699,20.39-0.38,30.5901c0,31.3099-0.0099,62.63,0,93.95c0.02,5.7-0.1899,11.41,0.3101,17.1  c-1.45-0.14-2.88-0.23-4.3-0.2899c-0.0699-47.02,0.14-94.04-0.13-141.05C1147.4399,1345.28,1134.04,1345.89,1120.66,1345.41z"
     id="path155" /><path
     fill="#AF5954"
     stroke="#AF5954"
     stroke-width="0.0938"
     d="M1165.3199,1345.45l0.1101-1.0199  c1.1599,4.4199,0.86,9,0.7999,13.5199c0.01,39.01,0.0601,78.02-0.02,117.03c-0.0699,4.03,0.75,8.28-0.96,12.11  c-0.5-5.6899-0.29-11.4-0.3101-17.1c-0.0099-31.3199,0-62.64,0-93.95C1165.15,1365.84,1164.46,1355.62,1165.3199,1345.45z"
     id="path157" /><path
     fill="#E2E2E2"
     stroke="#E2E2E2"
     stroke-width="0.0938"
     d="M814.33,1346.33c26.12-0.14,52.25,0.1901,78.37-0.14  c11.75,36.17,23.85,72.3,39.14,107.16c5.14,11.47,10.42,23.16,18.8799,32.63c-6.23-0.6-12.5-0.08-18.73-0.1899  c-39.24-0.0901-78.47,0.1499-117.71-0.1001C814.16,1439.23,814.1,1392.78,814.33,1346.33z"
     id="path159" /><path
     fill="#FFFFFF"
     stroke="#FFFFFF"
     stroke-width="0.0938"
     d="M892.7,1346.1899c6.09-0.2999,12.2-0.3899,18.31-0.33  c54.65,0.04,109.3,0.01,163.95,0.02c9.6901-0.3101,19.4501,0.62,29.11-0.47c0.4501,47.1799-0.1499,94.37,0.29,141.5499  c-24.47,0.13-48.9299,1.41-73.4,1.77c-24.4399,0.39-48.95,1.38-73.34-0.6c-1.21-0.1901-2.38-0.4301-3.53-0.6901  c-0.38-0.1-1.14-0.3099-1.52-0.4099c-0.46-0.26-1.39-0.78-1.85-1.05c-8.46-9.47-13.74-21.16-18.8799-32.63  C916.55,1418.49,904.45,1382.36,892.7,1346.1899z"
     id="path161" /><path
     fill="#FFFFFF"
     stroke="#FFFFFF"
     stroke-width="0.0938"
     d="M1120.66,1345.41c13.38,0.48,26.7799-0.13,40.1599,0.34  c0.27,47.01,0.0601,94.03,0.13,141.05c-13.4299,0.0599-26.86,0.0599-40.2899,0.01  C1120.6801,1439.67,1120.6801,1392.54,1120.66,1345.41z"
     id="path163" /><path
     fill="#AD4441"
     stroke="#AD4441"
     stroke-width="0.0938"
     d="M813.17,1487.1801c46.46-0.39,92.94-0.1101,139.4-0.15  c0.38,0.1,1.14,0.3099,1.52,0.4099c-5.59,1.6901-11.4301,0.6801-17.14,0.79c-37,0-73.99,0.03-110.99,0.02  C821.69,1488.15,817.22,1488.92,813.17,1487.1801z"
     id="path165" /><path
     fill="#B2403E"
     stroke="#B2403E"
     stroke-width="0.0938"
     d="M1030.96,1488.73c24.4701-0.36,48.9301-1.64,73.4-1.77  c-1.13,1.2101-2.89,1.29-4.42,1.4301c-18.98,0.58-38.0199,0.15-56.9299,2.12c-24,0.22-48.01,0.1-72.01,0.13  c-4.55-0.05-9.3-0.29-13.38-2.51C982.01,1490.11,1006.52,1489.12,1030.96,1488.73z"
     id="path167" /><path
     fill="#B2403E"
     stroke="#B2403E"
     stroke-width="0.0938"
     d="M751.3,1501.24c10.88-0.53,21.77-0.04,32.66-0.34  c4.24,0.0399,8.59-0.4601,12.7599,0.6c1.3101,0.61,1.09,2.24,1.2401,3.46c-0.32,46.3501,0.03,92.7001-0.17,139.04  c-4.2,1.02-8.53,0.84-12.81,0.71c-11.24-0.0299-22.47,0.2101-33.7-0.08c-0.71-9.53-0.21-19.09-0.34-28.63c-0.01-32-0.03-64-0.01-96  C750.88,1513.74,750.78,1507.48,751.3,1501.24 M752.19,1502.21c0.24,47.04-0.22,94.0901,0.21,141.13l-0.05,0.38  c14.72-0.1899,29.44,0.0901,44.16-0.15c-0.02-47.0699-0.14-94.1499,0.06-141.22C781.79,1501.9301,766.98,1502.37,752.19,1502.21z"
     id="path169" /><path
     fill="#B2403E"
     stroke="#B2403E"
     stroke-width="0.0938"
     d="M811.61,1501.54c10.4-1.25,20.89-0.2101,31.33-0.5  c32,0,63.99-0.0901,95.99,0.01c48.71-0.5601,97.42,0.01,146.14-0.2101c6.37,0.27,12.89-0.8099,19.14,0.87  c-42.0699,0.51-84.15,0.02-126.24,0.17c-54.86,0.83-109.7599,0.03-164.6299,0.49l-0.2401-0.01c0.21,47.0701-0.05,94.14,0.13,141.21  c85.27,0.04,170.54,0.01,255.8101,0.02c11.52,0.26,23.1-0.5599,34.59,0.42l0.97,0.14c-8.7999,1.2999-17.72,0.2999-26.5699,0.61  c-85-0.0601-170.01,0-255.01-0.04c-3.13-0.02-6.23,0.74-9.35,0.54c-2.37-0.5-1.69-3.5601-2.04-5.3201  C811.62,1593.8101,811.6,1547.67,811.61,1501.54z"
     id="path171" /><path
     fill="#B2403E"
     stroke="#B2403E"
     stroke-width="0.0938"
     d="M1119.95,1501.29c9.9801-0.9501,20.01-0.3401,30.02-0.4301  c5.3301-0.03,10.6801-0.11,16.01,0.3101c0.89,10.25,0.16,20.5499,0.4,30.83c0.03,31.6801-0.02,63.36,0.04,95.04  c-0.14,5.83,0.5499,11.76-0.87,17.5l-0.14-1.13l-0.05-0.54c-0.53-23.9399-0.0699-47.92-0.22-71.88  c-0.01-22.9399,0-45.88-0.01-68.8099c-1.45-0.1001-2.87-0.17-4.29-0.2201c-13.39-0.0699-26.7799-0.2999-40.1599,0.1901  c0.0499,30.28,0.0099,60.5599,0.0199,90.84c-0.09,8.52,0.24,17.05-0.24,25.58c-1.5-5.4299-0.7799-11.0599-0.85-16.59  c-0.09-27.34-0.02-54.6699-0.02-82.01C1119.63,1513.74,1119.3101,1507.49,1119.95,1501.29z"
     id="path173" /><path
     fill="#FFFBFA"
     stroke="#FFFBFA"
     stroke-width="0.0938"
     d="M752.19,1502.21c14.79,0.16,29.6-0.2799,44.38,0.14  c-0.51,0.04-1.55,0.12-2.06,0.16c-7.83,0.65-15.68-0.13-23.52,0.23c-6.1,0.26-12.2,0.42-18.31,0.3101  c0.46,9.6499-0.22,19.3099,0.22,28.97c0.4,8.6799-0.48,17.36-0.19,26.0499c-0.29,26.9601,0.1,53.9301,0.13,80.89  c-0.07,0.74-0.2,2.2201-0.26,2.9601c-0.05,0.36-0.14,1.0599-0.18,1.4199C751.97,1596.3,752.43,1549.25,752.19,1502.21z"
     id="path175" /><path
     fill="#E2E2E2"
     stroke="#E2E2E2"
     stroke-width="0.0938"
     d="M813.1,1502.36l0.2401,0.01c9.83,1.29,19.7599,0.4,29.65,0.65  c38-0.04,76.01,0.0599,114.01-0.05c2.09,0.12,4.76-0.14,5.96,2.03c21.25,31.08,43.88,61.6801,71.93,87.04  c20.1,18.02,43.4,33,69.3099,41.09c0.0701,3.62-0.0199,7.27-0.5699,10.88c-11.49-0.98-23.0699-0.16-34.59-0.42  c-85.27-0.01-170.54,0.02-255.8101-0.02C813.05,1596.5,813.31,1549.4301,813.1,1502.36z"
     id="path177" /><path
     fill="#FFFFFF"
     stroke="#FFFFFF"
     stroke-width="0.0938"
     d="M813.34,1502.37c54.87-0.46,109.77,0.34,164.6299-0.49  c42.09-0.15,84.17,0.34,126.24-0.17c0,43.8,0.03,87.61-0.01,131.42c-25.9099-8.09-49.21-23.0699-69.3099-41.09  c-28.05-25.36-50.68-55.9601-71.93-87.04c-1.2-2.17-3.87-1.91-5.96-2.03c-38,0.11-76.01,0.01-114.01,0.05  C833.1,1502.77,823.17,1503.66,813.34,1502.37z"
     id="path179" /><path
     fill="#FFFFFF"
     stroke="#FFFFFF"
     stroke-width="0.0938"
     d="M1120.6801,1502.15c13.38-0.49,26.7699-0.26,40.1599-0.1901  c0.23,47-0.01,94.01,0.12,141.01c1.4501-0.0499,2.92-0.08,4.4-0.1l0.05,0.54c-14.89,0.38-29.79,0.0599-44.6801,0.0499  c5.1801-0.0599,10.37-0.2,15.55-0.6699c-5.42-0.8501-10.76-2.23-15.7001-4.63c-1.6699-6.4401-0.38-13.0901-0.12-19.5901  c0.48-8.5299,0.15-17.0599,0.24-25.58C1120.6899,1562.71,1120.73,1532.4301,1120.6801,1502.15z"
     id="path181" /><path
     fill="#E8E1DD"
     stroke="#E8E1DD"
     stroke-width="0.0938"
     d="M1160.84,1501.96c1.42,0.05,2.8401,0.12,4.29,0.2201  c0.01,22.9299,0,45.87,0.01,68.8099c0.15,23.96-0.3101,47.9401,0.22,71.88c-1.48,0.02-2.95,0.05-4.4,0.1  C1160.83,1595.97,1161.0699,1548.96,1160.84,1501.96z"
     id="path183" /><path
     fill="#E2E2E2"
     stroke="#E2E2E2"
     stroke-width="0.0938"
     d="M752.68,1503.05c6.11,0.11,12.21-0.05,18.31-0.3101  c7.84-0.36,15.69,0.42,23.52-0.23c1.3,9.79,0.48,19.67,0.72,29.51c0,34.64-0.04,69.28,0.01,103.9199  c-0.28,2.29,0.32,6.4601-3.17,6.2301c-13.15,0.22-26.35,0.35-39.49-0.25c0.06-0.74,0.19-2.2201,0.26-2.9601  c-0.03-26.96-0.42-53.9299-0.13-80.89c-0.29-8.6899,0.59-17.37,0.19-26.0499C752.46,1522.36,753.14,1512.7,752.68,1503.05z"
     id="path185" /><path
     fill="#F3CDCC"
     stroke="#F3CDCC"
     stroke-width="0.0938"
     d="M794.51,1502.51c0.51-0.04,1.55-0.12,2.06-0.16  c-0.2,47.0701-0.08,94.15-0.06,141.22c-14.72,0.2401-29.44-0.0399-44.16,0.15l0.05-0.38c0.04-0.36,0.13-1.0599,0.18-1.4199  c13.14,0.6,26.34,0.47,39.49,0.25c3.49,0.23,2.89-3.9401,3.17-6.2301c-0.05-34.6399-0.01-69.2799-0.01-103.9199  C794.99,1522.1801,795.81,1512.3,794.51,1502.51z"
     id="path187" /><path
     fill="#EFDFDB"
     stroke="#EFDFDB"
     stroke-width="0.0938"
     d="M1120.58,1638.16c4.9401,2.4,10.28,3.7799,15.7001,4.63  c-5.1801,0.47-10.37,0.61-15.55,0.6699C1120.67,1641.66,1120.64,1639.91,1120.58,1638.16z"
     id="path189" /><path
     fill="#1C1817"
     stroke="#1C1817"
     stroke-width="0.0938"
     d="M1230.64,1796.42c16.89-0.11,33.78-0.01,50.67-0.05  c-0.4901,13.52-0.2301,27.0601-0.2201,40.59c-5.39-0.11-10.76,0.2101-16.13,0.42c-3.58,0.14-7.24-0.6901-10.73,0.29l-0.28,0.08  c-17.26,1.0699-34.5699,1.01-51.85,1.63c-188.77,4.64-377.7,4.99-566.41-2.21c0.02-13.6001-0.02-27.1901,0.02-40.78  c21.44,0.02,42.87-0.11,64.31,0.0499c0.08,3.39,0.17,6.79,0.26,10.2001c11.9,0.0699,23.8-0.09,35.71-0.11  c25.65-0.3101,51.31,0.14,76.95-0.77c28.68-0.05,57.36-0.27,86.05-0.39c11.02-0.16,22.05,0.25,33.05-0.66  c34.32-0.1499,68.64-0.37,102.96-0.5c12.3199-0.72,24.67-0.38,37.01-0.5399c24.99-0.13,49.99-0.25,74.98-0.37  c12.3101-0.9701,24.66-0.49,37-0.6801c15.12-0.0699,30.24-0.17,45.36-0.21c0.0801-1.9401,0.14-3.87,0.3-5.75  C1229.89,1796.6,1230.39,1796.48,1230.64,1796.42z"
     id="path191" /><g
     id="layer1"
     transform="translate(66.467 154.24)"
     inkscape:groupmode="layer"
     inkscape:label="Layer 1"><g
       id="g3814"><path
         id="path2902"
         fill="#FFCF03"
         stroke="#FFCF03"
         stroke-width="0.009"
         d="M889.599-33.0074v1.1714l2.9446,4.9758v1.9129    l-4.7285-3.0843h-0.892v8.1028h0.892l4.7285-2.7189v4.6212c-3.2628,0.4778-5.7709,3.2888-5.7709,6.6846    c0,3.7305,3.0182,6.7595,6.7489,6.7595c3.7307,0,6.7595-3.0289,6.7595-6.7595c0-3.2866-2.3489-6.0157-5.4593-6.6199v-4.3633    l4.7072,2.7081h0.8382v-7.6729h-0.8382l-4.7072,3.0628v-2.6329l2.9446-4.9758v-1.1714h-8.1674V-33.0074z M892.5436-16.3393v4.0301    c-1.2872-0.2246-2.4615-0.7739-3.4496-1.5475C889.8167-15.1261,891.0636-16.0517,892.5436-16.3393L892.5436-16.3393z     M894.8218-16.264c1.4835,0.3919,2.7023,1.434,3.3315,2.8049c-0.9769,0.6378-2.1151,1.0494-3.3315,1.1929V-16.264z     M880.8729-9.9774c-1.6958,0-3.0735,1.3778-3.0735,3.0735s1.3777,3.0628,3.0735,3.0628c1.6957,0,3.0735-1.367,3.0735-3.0628    S882.5687-9.9774,880.8729-9.9774z M906.1813-9.9774c-1.6957,0-3.0735,1.3778-3.0735,3.0735s1.3778,3.0628,3.0735,3.0628    c1.6958,0,3.0735-1.367,3.0735-3.0628S907.8771-9.9774,906.1813-9.9774z M892.2984-9.2576c1.7846,0,3.4243,0.6029,4.7391,1.612    c-0.9141,0.8689-2.1534,1.3971-3.5142,1.3971c-1.8147,0-3.4063-0.9468-4.3093-2.375c0.9451-0.4069,1.9905-0.6341,3.0843-0.6341    H892.2984z M872.7719-7.8928c-1.5613,0-2.8268,1.2662-2.8268,2.8264c0,1.5601,1.2662,2.8264,2.8264,2.8264    s2.8264-1.2662,2.8264-2.8264c0-1.5601-1.2663-2.8264-2.8264-2.8264L872.7719-7.8928z M914.2865-7.8928    c-1.5601,0-2.8264,1.2662-2.8264,2.8264c0,1.5601,1.2662,2.8264,2.8264,2.8264c1.5601,0,2.8264-1.2662,2.8264-2.8264    C917.1129-6.6265,915.8466-7.8928,914.2865-7.8928z M865.3988-4.3892c-1.3905,0-2.5147,1.1242-2.5147,2.5147    s1.1242,2.5255,2.5147,2.5255s2.5147-1.1349,2.5147-2.5255C867.9135-3.265,866.7893-4.3892,865.3988-4.3892z M921.6561-4.3892    c-1.3905,0-2.5147,1.1242-2.5147,2.5147s1.1242,2.5255,2.5147,2.5255s2.5147-1.1349,2.5147-2.5255    C924.1708-3.265,923.0466-4.3892,921.6561-4.3892z M884.8596-3.4005l-1.1391,0.1719c-9.642,1.4517-18.6878,5.2454-25.8779,9.2421    c-7.1901,3.9967-12.4641,8.1238-14.7874,10.6283l2.1923,2.0311c1.8699-2.0158,7.0972-6.1797,14.0566-10.0482    c6.6663-3.7054,14.984-7.1832,23.7178-8.6833c1.2787,2.8643,2.4911,5.5078,3.7505,11.9826h2.9338    c-1.4552-7.4814-2.9856-11.0575-4.3953-14.2715l-0.4514-1.0532L884.8596-3.4005z M902.1938-3.4005l-0.4514,1.0532    c-1.4097,3.2139-2.9401,6.7901-4.3953,14.2715h2.9338c1.2587-6.4745,2.4726-9.1179,3.7484-11.9826    c8.7335,1.4999,17.0516,4.9778,23.7179,8.6833c6.9594,3.8684,12.1868,8.0323,14.0566,10.0482l2.1923-2.0311    c-2.3233-2.5046-7.5972-6.6316-14.7874-10.6283c-7.1901-3.9967-16.2358-7.7905-25.8779-9.2421l-1.1391-0.1719L902.1938-3.4005z     M893.5209-3.1964c-1.4244,0-2.5792,1.1548-2.5792,2.5792s1.1548,2.5792,2.5792,2.5792c1.4244,0,2.5792-1.1548,2.5792-2.5792    S894.9453-3.1964,893.5209-3.1964z M858.8841-1.133c-1.2888,0-2.332,1.0432-2.332,2.332s1.0432,2.332,2.332,2.332    c1.2888,0,2.3428-1.0432,2.3428-2.332S860.1729-1.133,858.8841-1.133z M928.168-1.133c-1.2888,0-2.3428,1.0432-2.3428,2.332    s1.054,2.332,2.3428,2.332c1.2888,0,2.332-1.0432,2.332-2.332S929.4568-1.133,928.168-1.133z M852.2539,3.0366    c-1.221,0-2.2031,0.9929-2.2031,2.2138s0.9821,2.2138,2.2031,2.2138c1.2209,0,2.2138-0.9929,2.2138-2.2138    S853.4749,3.0366,852.2539,3.0366z M934.7982,3.0366c-1.2209,0-2.2137,0.9929-2.2137,2.2138s0.9928,2.2138,2.2137,2.2138    c1.221,0,2.2031-0.9929,2.2031-2.2138S936.0192,3.0366,934.7982,3.0366z M893.5209,3.3805c-1.221,0-2.2031,0.9929-2.2031,2.2138    s0.9821,2.203,2.2031,2.203c1.2209,0,2.2137-0.9821,2.2137-2.203S894.7419,3.3805,893.5209,3.3805z M846.3665,7.4643    c-1.0853,0-1.9667,0.8813-1.9667,1.9666c0,1.0853,0.8813,1.9666,1.9667,1.9666c1.0853,0,1.9667-0.8813,1.9667-1.9666    C848.3331,8.3456,847.4518,7.4643,846.3665,7.4643z M940.6891,7.4643c-1.0853,0-1.9666,0.8813-1.9666,1.9666    c0,1.0853,0.8813,1.9666,1.9666,1.9666c1.0853,0,1.9667-0.8813,1.9667-1.9666C942.6558,8.3456,941.7744,7.4643,940.6891,7.4643z     M861.594,7.9586c-2.8411,4.4087-2.7235,10.0833-0.9887,16.4532c-13.1958-5.6161-17.7383,11.3085-7.7375,16.4532    c-0.7642-4.1074-0.0321-8.49,4.4276-8.9625c2.3851-0.2528,5.1869,0.4219,5.5236,4.7932c0.237,3.075-2.3691,10.4168-10.564,10.3168    c-5.1208-0.0636-10.5887-1.9815-13.0142-10.1878c-0.9041-3.059-0.8886-2.9097,2.1171-1.6657    c1.1763,0.4869,2.6668,1.4972,5.126,3.6215c-0.174-3.4363-1.836-12.1566-3.5572-14.7337    c-2.2982,1.6248-2.5436,3.5397-6.8779,4.7822c1.5401-2.9808,2.9687-6.0226,5.1584-9.3281    c-4.5621,0.3404-7.3063,1.4342-10.3167,2.0848c0.7059,2.9277,1.423,5.818,2.4502,8.1028    c-2.2587,4.3788-0.3686,6.3472,1.9667,8.479c0.9509,0.8682,5.2447,13.5005,3.0735,17.8071    c-1.1446,2.2706-0.4753,4.6986,1.1069,5.7709c1.7701,1.1998,3.3604,2.7413,4.8038,4.331    c1.8483,2.0356,1.4184,2.2459,3.6862,0.9994c7.9832-4.3877,25.3889-7.4043,45.5554-7.4043    c20.1662,0,37.5702,3.0167,45.5554,7.4043c2.2678,1.2464,1.8378,1.0361,3.6862-0.9994c1.4434-1.5896,3.0336-3.1311,4.8038-4.331    c1.5823-1.0725,2.2515-3.5005,1.1069-5.7709c-2.1711-4.3066,2.1226-16.9391,3.0735-17.8071    c2.3353-2.1319,4.2254-4.1002,1.9667-8.479c1.0272-2.2852,1.7443-5.1752,2.4502-8.1028    c-3.0103-0.6507-5.7546-1.7445-10.3167-2.0848c2.1897,3.3056,3.6184,6.3472,5.1583,9.3281    c-4.3344-1.2426-4.5796-3.1575-6.8778-4.7822c-1.7211,2.5771-3.3831,11.2972-3.5572,14.7337    c2.4593-2.1244,3.9499-3.1347,5.126-3.6215c3.0057-1.244,3.0211-1.3933,2.1171,1.6657    c-2.4254,8.2063-7.8934,10.1242-13.0143,10.1878c-8.1949,0.1002-10.8009-7.2417-10.564-10.3168    c0.3369-4.3712,3.1386-5.0459,5.5236-4.7932c4.4596,0.4727,5.1918,4.8551,4.4276,8.9625    c10.0007-5.1446,5.4583-22.0693-7.7375-16.4532c1.7348-6.3699,1.8524-12.0445-0.9887-16.4532    c-3.4348,3.452-7.46,6.3754-6.1364,15.7117c-2.4847-1.7821-4.6473-3.5761-6.8778-3.0628    c-3.0072,0.6923-5.7437,1.9133-6.2654,6.6306c-0.3641,3.2939,1.5303,6.4349,4.0514,8.4683    c0.3361-3.2323,0.9339-6.0501,4.5459-6.1364c4.1473-0.0991,4.9177,3.3262,4.7932,6.0181    c-0.1725,3.7274-5.2151,8.1014-11.671,7.6193c-6.4707-0.4831-12.0789-5.9985-11.9826-12.681    c2.0485,0.4915,4.6257,2.6208,5.8138,3.6432c0.2288,0.1969,1.028,0.1822,1.2573,0.1934V20.3925    c-0.3005,0.0067-0.9171-0.0792-1.2788,0.1397c-1.8561,1.1232-4.0618,4.689-5.3517,4.374c1.0022-4.0958,3.7395-9.021,3.8041-10.693    h-13.2828c0.0648,1.6719,2.8021,6.5972,3.8041,10.693c-1.29,0.3152-3.4957-3.2506-5.3516-4.374    c-0.3618-0.2189-0.9784-0.133-1.2789-0.1397v13.9706c0.2293-0.0113,1.0286,0.0034,1.2573-0.1934    c1.1881-1.0223,3.7656-3.1516,5.8138-3.6432c0.0965,6.6825-5.5115,12.1978-11.9825,12.681    c-6.4556,0.482-11.4984-3.8918-11.671-7.6193c-0.1246-2.6919,0.6455-6.1171,4.7932-6.0181    c3.6119,0.0863,4.2096,2.904,4.5459,6.1364c2.5212-2.0333,4.4156-5.1745,4.0514-8.4683    c-0.5215-4.7172-3.2581-5.9383-6.2653-6.6306c-2.2305-0.5135-4.3932,1.2807-6.8779,3.0628    c1.3238-9.336-2.7016-12.2597-6.1364-15.7117L861.594,7.9586z M893.5223,9.2159c-0.8818,0-1.5905,0.7087-1.5905,1.5905    c0,0.8818,0.7087,1.6012,1.5905,1.6012c0.8818,0,1.6013-0.7195,1.6013-1.6012C895.1235,9.9246,894.4041,9.2159,893.5223,9.2159z     M841.574,12.1287c-0.8818,0-1.6013,0.7195-1.6013,1.6012c0,0.8818,0.7195,1.5905,1.6013,1.5905    c0.8818,0,1.6013-0.7087,1.6013-1.5905C843.1752,12.8482,842.4558,12.1288,841.574,12.1287L841.574,12.1287z M945.4844,12.1287    c-0.8839,0-1.6025,0.7194-1.6025,1.6012c0,0.8818,0.7194,1.5905,1.6012,1.5905c0.8818,0,1.6012-0.7087,1.6012-1.5905    c0-0.8817-0.7187-1.6012-1.5991-1.6012L945.4844,12.1287z M893.5223,26.035c0.7462,0,1.3541,0.6079,1.3541,1.3541    c0,0.7461-0.6079,1.3541-1.3541,1.3541s-1.3433-0.6079-1.3433-1.3541C892.179,26.6429,892.7762,26.035,893.5223,26.035z     M834.6205,31.322c0.5447-0.0112,1.2019,0.877,1.5153,2.0741c0.3343,1.2769,0.1435,2.4265-0.4191,2.5685    c-0.5626,0.1419-1.2885-0.7757-1.6227-2.0526c-0.3343-1.2769-0.1435-2.4265,0.4191-2.5685    C834.5482,31.3346,834.5841,31.3227,834.6205,31.322L834.6205,31.322z M952.4447,31.322    c0.0363,0.0008,0.0723,0.0126,0.1075,0.0215c0.5626,0.1419,0.7534,1.2916,0.4191,2.5685    c-0.3343,1.2769-1.0601,2.1945-1.6227,2.0526c-0.5626-0.1419-0.7534-1.2916-0.4191-2.5685    C951.2428,32.199,951.9,31.3108,952.4447,31.322L952.4447,31.322z M893.5223,44.6478l3.1703,5.0617l-3.1703,5.0724l-3.1703-5.0724    L893.5223,44.6478z M880.3791,46.3995c0.8818,0,1.6012,0.7087,1.6012,1.5905s-0.7194,1.6012-1.6012,1.6012    c-0.8818,0-1.5905-0.7195-1.5905-1.6012C878.7886,47.1082,879.4973,46.3995,880.3791,46.3995z M906.6868,46.3995    c0.8818,0,1.5905,0.7087,1.5905,1.5905s-0.7087,1.6012-1.5905,1.6012c-0.8818,0-1.6013-0.7195-1.6013-1.6012    C905.0856,47.1082,905.8051,46.3995,906.6868,46.3995z M868.2466,46.7331c3.2662,0.0642,5.9335,1.7907,6.2437,4.234    c0.3547,2.7925-2.5082,5.46-6.3943,5.9535c-3.886,0.4936-7.3184-1.3771-7.6729-4.1697c-0.3547-2.7925,2.5082-5.4493,6.3943-5.9428    c0.4857-0.0617,0.9626-0.0844,1.4293-0.0752L868.2466,46.7331z M918.8193,46.7331c0.4666-0.0092,0.9435,0.0135,1.4293,0.0752    c3.886,0.4936,6.7489,3.1503,6.3943,5.9428c-0.3547,2.7925-3.787,4.6632-7.673,4.1697c-3.8859-0.4936-6.7488-3.1611-6.3943-5.9535    c0.3104-2.4435,2.9776-4.17,6.2437-4.234L918.8193,46.7331z M852.3209,51.2484c0.8818,0,1.6013,0.7195,1.6013,1.6012    c0,0.8818-0.7195,1.5905-1.6013,1.5905s-1.6012-0.7087-1.6012-1.5905S851.4391,51.2484,852.3209,51.2484z M934.7484,51.2484    c0.8818,0,1.6012,0.7195,1.6012,1.6012c0,0.8818-0.7195,1.5905-1.6012,1.5905c-0.8818,0-1.6013-0.7087-1.6013-1.5905    S933.8666,51.2484,934.7484,51.2484z M881.2422,53.0323c0.8818,0,1.6013,0.7087,1.6013,1.5905s-0.7195,1.6012-1.6013,1.6012    s-1.5905-0.7195-1.5905-1.6012C879.6517,53.741,880.3605,53.0323,881.2422,53.0323z M905.8305,53.0323    c0.8818,0,1.5905,0.7087,1.5905,1.5905s-0.7087,1.6012-1.5905,1.6012c-0.8818,0-1.6012-0.7195-1.6012-1.6012    C904.2293,53.741,904.9487,53.0323,905.8305,53.0323z M841.4814,54.6658l3.4067,2.7726l-0.9886,4.288l-3.4175-2.7834    l0.9995-4.2773V54.6658z M945.5947,54.6658l0.9995,4.2773l-3.4174,2.7834l-0.9887-4.288l3.4067-2.7726V54.6658z M853.4936,57.6955    c0.8818,0,1.5905,0.7195,1.5905,1.6012c0,0.8818-0.7087,1.5905-1.5905,1.5905c-0.8818,0-1.6012-0.7087-1.6012-1.5905    S852.6118,57.6955,853.4936,57.6955z M933.5792,57.6955c0.8818,0,1.6012,0.7195,1.6012,1.6012    c0,0.8818-0.7194,1.5905-1.6012,1.5905c-0.8818,0-1.5905-0.7087-1.5905-1.5905S932.6973,57.6955,933.5792,57.6955z     M893.5364,61.543c-24.894,0-45.0704,5.093-45.0704,7.9848c0,2.6463,20.1775,7.1787,45.0704,7.1787    c24.894,0,45.0705-4.5325,45.0705-7.1787C938.6069,66.636,918.4293,61.543,893.5364,61.543z" /></g></g></svg>